<svg width="55" height="76" viewBox="0 0 55 76" fill="none" xmlns="http://www.w3.org/2000/svg">
<path fill-rule="evenodd" clip-rule="evenodd" d="M33.1041 22.6855C32.8316 21.885 33.1119 21.0034 33.7999 20.4965C36.3541 18.6146 38 15.6251 38 12.2581C38 6.57131 33.299 1.96129 27.5 1.96129C21.701 1.96129 17 6.57131 17 12.2581C17 15.6251 18.6459 18.6146 21.2001 20.4965C21.8881 21.0034 22.1684 21.885 21.8959 22.6855C21.6234 23.486 20.8593 24.0258 19.9988 24.0258H4C2.89543 24.0258 2 24.9039 2 25.9871V72.0774C2 73.1606 2.89543 74.0387 4 74.0387H51C52.1046 74.0387 53 73.1606 53 72.0774V58.3481C51.5471 58.9785 49.9395 59.329 48.25 59.329C41.7607 59.329 36.5 54.1702 36.5 47.8065C36.5 41.4427 41.7607 36.2839 48.25 36.2839C49.9395 36.2839 51.5471 36.6344 53 37.2648V25.9871C53 24.9039 52.1046 24.0258 51 24.0258H35.0012C34.1407 24.0258 33.3766 23.486 33.1041 22.6855ZM55 40.907C54.8819 40.7959 54.761 40.6876 54.6373 40.5824C54.1341 40.1541 53.5857 39.7756 53 39.4546C51.5945 38.6842 49.9745 38.2452 48.25 38.2452C42.8652 38.2452 38.5 42.5259 38.5 47.8065C38.5 53.087 42.8652 57.3677 48.25 57.3677C49.9745 57.3677 51.5945 56.9287 53 56.1583C53.5857 55.8373 54.1341 55.4588 54.6373 55.0305C54.761 54.9253 54.8819 54.8171 55 54.7059V72.0774C55 74.2438 53.2091 76 51 76H4C1.79086 76 0 74.2438 0 72.0774V25.9871C0 23.8207 1.79086 22.0645 4 22.0645H19.9988C19.2224 21.4925 18.5161 20.8338 17.8949 20.1032C16.0874 17.9774 15 15.2423 15 12.2581C15 5.48812 20.5964 0 27.5 0C34.4036 0 40 5.48812 40 12.2581C40 15.2423 38.9126 17.9774 37.1051 20.1032C36.4839 20.8338 35.7776 21.4925 35.0012 22.0645H51C53.2091 22.0645 55 23.8207 55 25.9871V40.907Z" fill="white"/>
</svg>
