<svg width="71" height="69" viewBox="0 0 71 69" fill="none" xmlns="http://www.w3.org/2000/svg">
<path fill-rule="evenodd" clip-rule="evenodd" d="M32.7823 0.0258789C33.3235 0.0258789 33.7623 0.46203 33.7623 1.00005L33.7623 28.7639C33.7623 29.3019 33.3235 29.7381 32.7823 29.7381C32.241 29.7381 31.8022 29.3019 31.8022 28.7639L31.8022 1.00005C31.8022 0.46203 32.241 0.0258789 32.7823 0.0258789Z" fill="white"/>
<path fill-rule="evenodd" clip-rule="evenodd" d="M67.3994 22.4763C69.388 21.6255 70.3062 19.3333 69.4503 17.3565L69.4125 17.2693C68.5566 15.2925 66.2507 14.3797 64.2621 15.2306L2.60075 41.6122C0.612161 42.463 -0.306061 44.7552 0.549848 46.7319L0.587647 46.8192C1.44356 48.796 3.74948 49.7088 5.73807 48.8579L67.3994 22.4763ZM63.8162 26.1305C63.0536 25.251 61.688 25.2806 60.966 26.2194C60.5926 26.7049 60.1686 27.2674 59.72 27.8831C57.3702 31.1074 54.3423 35.7892 54.3423 38.5054C54.3423 42.9441 57.9621 46.5423 62.4274 46.5423C66.8926 46.5423 70.5124 42.9441 70.5124 38.5054C70.5124 35.2705 66.218 29.248 63.8887 26.2194C63.8652 26.1888 63.841 26.1592 63.8162 26.1305ZM12.7796 47.9664C12.0052 47.1727 10.7043 47.23 10.0058 48.1382C9.66665 48.5792 9.28586 49.0836 8.88272 49.6337C6.51705 52.8615 3.38211 57.6603 3.38211 60.4243C3.38211 64.8629 7.00191 68.4612 11.4671 68.4612C15.9324 68.4612 19.5522 64.8629 19.5522 60.4243C19.5522 57.1893 15.2578 51.1668 12.9285 48.1382C12.8815 48.0771 12.8317 48.0198 12.7796 47.9664ZM67.65 18.1268L67.6122 18.0396C67.1843 17.0512 66.0313 16.5948 65.037 17.0202L3.37563 43.4018C2.38134 43.8272 1.92223 44.9733 2.35017 45.9617L2.38797 46.049C2.81593 47.0373 3.96889 47.4937 4.96319 47.0683L66.6245 20.6867C67.6188 20.2613 68.0779 19.1152 67.65 18.1268C67.65 18.1268 67.65 18.1268 67.65 18.1268ZM5.90362 58.3034C5.5001 59.284 5.34212 59.9902 5.34212 60.4243C5.34212 63.7869 8.08439 66.5128 11.4671 66.5128C14.8499 66.5128 17.5922 63.7869 17.5922 60.4243C17.5922 59.9902 17.4342 59.284 17.0307 58.3034C16.6409 57.356 16.0823 56.2949 15.4278 55.1974C14.1557 53.0642 12.6043 50.9309 11.4671 49.4463C10.33 50.9309 8.7786 53.0642 7.50651 55.1974C6.85203 56.2949 6.29344 57.356 5.90362 58.3034ZM56.8638 36.3845C56.4603 37.3652 56.3023 38.0714 56.3023 38.5054C56.3023 41.8681 59.0446 44.594 62.4274 44.594C65.8101 44.594 68.5524 41.8681 68.5524 38.5054C68.5524 38.0714 68.3944 37.3652 67.9909 36.3845C67.6011 35.4372 67.0425 34.3761 66.388 33.2786C65.1159 31.1454 63.5645 29.0121 62.4274 27.5275C61.2902 29.0121 59.7388 31.1454 58.4667 33.2786C57.8122 34.3761 57.2537 35.4372 56.8638 36.3845Z" fill="white"/>
</svg>
