<svg width="64" height="76" viewBox="0 0 64 76" fill="none" xmlns="http://www.w3.org/2000/svg">
<path fill-rule="evenodd" clip-rule="evenodd" d="M33.1919 34.3918C33.3007 34.9187 32.9638 35.4345 32.4394 35.5438L23.8941 37.3251C23.3697 37.4344 22.8564 37.0959 22.7476 36.569C22.6388 36.0421 22.9757 35.5263 23.5001 35.417L29.7471 34.1148C28.1586 33.0584 26.4673 31.8645 25.0387 30.498C22.9846 28.5332 21.3333 26.0826 21.3333 22.9868C21.3333 17.0039 26.2318 12.1795 32.2424 12.1795C38.2531 12.1795 43.1515 17.0039 43.1515 22.9868C43.1515 23.525 42.7174 23.9612 42.1818 23.9612C41.6463 23.9612 41.2121 23.525 41.2121 22.9868C41.2121 18.1086 37.2105 14.1282 32.2424 14.1282C27.2743 14.1282 23.2727 18.1086 23.2727 22.9868C23.2727 25.3216 24.5039 27.2959 26.3759 29.0866C27.6963 30.3496 29.2656 31.4572 30.8185 32.4897L29.5202 26.2013C29.4114 25.6744 29.7483 25.1586 30.2727 25.0493C30.797 24.94 31.3103 25.2785 31.4191 25.8054L33.1919 34.3918ZM31.2727 46.2821C43.4565 46.2821 53.3333 36.3577 53.3333 24.1154C53.3333 11.8731 43.4565 1.94872 31.2727 1.94872C19.089 1.94872 9.21212 11.8731 9.21212 24.1154C9.21212 36.3577 19.089 46.2821 31.2727 46.2821ZM49.4545 53.5897H14.5455C7.58332 53.5897 1.93939 59.2608 1.93939 66.2564V72.1026C1.93939 73.1788 2.80769 74.0513 3.87879 74.0513H60.1212C61.1923 74.0513 62.0606 73.1788 62.0606 72.1026V66.2564C62.0606 59.2608 56.4167 53.5897 49.4545 53.5897ZM31.2727 48.2308C44.5276 48.2308 55.2727 37.4339 55.2727 24.1154C55.2727 10.7968 44.5276 0 31.2727 0C18.0179 0 7.27273 10.7968 7.27273 24.1154C7.27273 37.4339 18.0179 48.2308 31.2727 48.2308ZM14.5455 51.641C6.51222 51.641 0 58.1846 0 66.2564V72.1026C0 74.2551 1.73659 76 3.87879 76H60.1212C62.2634 76 64 74.2551 64 72.1026V66.2564C64 58.1846 57.4878 51.641 49.4545 51.641H14.5455Z" fill="white"/>
</svg>
