<svg width="105" height="87" viewBox="0 0 105 87" fill="none" xmlns="http://www.w3.org/2000/svg">
<path fill-rule="evenodd" clip-rule="evenodd" d="M23.5481 33.9912C23.5481 19.3227 36.5989 7.30534 52.0951 7.30534C67.5913 7.30534 80.6421 19.3227 80.6421 33.9912C80.6421 40.7078 78.4336 46.6454 74.4982 51.4101L52.0951 77.0475L42.3592 65.906C41.0021 64.353 38.575 64.1378 36.9381 65.4253C35.3011 66.7131 35.0743 69.0156 36.4314 70.5683L49.1312 85.102C49.8627 85.9394 50.9491 86.4236 52.0951 86.4236C53.2412 86.4236 54.3276 85.9394 55.059 85.102L71.0318 66.8233C71.2838 67.4695 71.5722 68.0971 71.8984 68.7061C73.3768 71.3838 75.3704 73.4878 77.8792 75.0179C80.388 76.5056 83.188 77.2494 86.2792 77.2494C88.3848 77.2494 90.3784 76.8243 92.26 75.9743C94.1864 75.0817 95.7096 74.0191 96.8296 72.7865C96.8744 73.8916 97.2552 74.8054 97.972 75.528C98.7336 76.2505 99.6968 76.6118 100.862 76.6118C102.026 76.6118 102.99 76.2505 103.751 75.528C104.513 74.7629 104.894 73.8278 104.894 72.7227V45.7538C104.894 44.6062 104.513 43.6712 103.751 42.9486C102.99 42.226 102.026 41.8647 100.862 41.8647C99.6968 41.8647 98.7336 42.2473 97.972 43.0123C97.2104 43.7349 96.8296 44.6487 96.8296 45.7538V45.8176C95.5304 44.67 93.94 43.7349 92.0584 43.0123C90.6066 42.4219 89.0743 42.0593 87.4622 41.9245C88.0432 39.379 88.3421 36.7264 88.3421 33.9912C88.3421 15.1487 71.6954 0 52.0951 0C32.4948 0 15.8481 15.1487 15.8481 33.9912C15.8481 36.0085 17.5718 37.6439 19.6981 37.6439C21.8244 37.6439 23.5481 36.0085 23.5481 33.9912ZM77.476 59.5888C77.476 59.5417 77.476 59.4946 77.4767 59.4476L80.4587 56.035C80.4797 56.0108 80.5007 55.9864 80.521 55.9616C82.271 53.8502 83.7466 51.5648 84.9282 49.134C85.6716 48.9633 86.4577 48.8779 87.2872 48.8779C90.1992 48.8779 92.5736 49.898 94.4104 51.9381C96.2472 53.9783 97.1656 56.5286 97.1656 59.5888C97.1656 62.6491 96.2472 65.1993 94.4104 67.2397C92.5736 69.2374 90.1992 70.2362 87.2872 70.2362C84.3752 70.2362 82.0008 69.2374 80.164 67.2397C78.372 65.1993 77.476 62.6491 77.476 59.5888ZM52.4961 42.7131C58.6817 42.7131 63.6961 37.9191 63.6961 32.0054C63.6961 26.0917 58.6817 21.2977 52.4961 21.2977C46.3105 21.2977 41.2961 26.0917 41.2961 32.0054C41.2961 37.9191 46.3105 42.7131 52.4961 42.7131ZM34.272 58.76C34.2272 59.7801 33.8016 60.6089 32.9952 61.2465C32.1888 61.884 31.248 62.2028 30.1728 62.2028H7.9968C8.5344 64.7105 9.7664 66.6871 11.6928 68.1323C13.6192 69.5349 15.792 70.2362 18.2112 70.2362C20.048 70.2362 21.4816 70.0875 22.512 69.7899C23.5424 69.4499 24.3488 69.1099 24.9312 68.7698C25.5584 68.3873 25.984 68.1323 26.208 68.0048C27.0144 67.6222 27.776 67.431 28.4928 67.431C29.4336 67.431 30.24 67.7497 30.912 68.3873C31.584 69.0249 31.92 69.7687 31.92 70.6188C31.92 71.7664 31.2928 72.8077 30.0384 73.7428C28.784 74.7204 27.104 75.5492 24.9984 76.2293C22.8928 76.9093 20.7648 77.2494 18.6144 77.2494C14.8512 77.2494 11.5584 76.5055 8.736 75.0179C5.9584 73.5303 3.808 71.4901 2.2848 68.8973C0.7616 66.2619 0 63.3079 0 60.0351C0 56.3798 0.8064 53.1707 2.4192 50.408C4.032 47.6452 6.16 45.5413 8.8032 44.0962C11.4464 42.6085 14.2688 41.8647 17.2704 41.8647C20.2272 41.8647 23.0048 42.6298 25.6032 44.1599C28.2464 45.6901 30.352 47.7515 31.92 50.3442C33.488 52.937 34.272 55.7422 34.272 58.76ZM17.2704 48.8779C12.0736 48.8779 9.0048 51.1943 8.064 55.8272H25.6704V55.3809C25.4912 53.5958 24.5728 52.0656 22.9152 50.7905C21.2576 49.5154 19.376 48.8779 17.2704 48.8779Z" fill="#6E84FE"/>
</svg>
