<?xml version="1.0" encoding="UTF-8" standalone="no"?>
<svg
   xmlns:dc="http://purl.org/dc/elements/1.1/"
   xmlns:cc="http://creativecommons.org/ns#"
   xmlns:rdf="http://www.w3.org/1999/02/22-rdf-syntax-ns#"
   xmlns:svg="http://www.w3.org/2000/svg"
   xmlns="http://www.w3.org/2000/svg"
   style="fill:none"
   id="svg940"
   version="1.1"
   viewBox="0 0 1920.2418 1597.8793"
   height="1597.8793"
   width="1920.2418">
  <metadata
     id="metadata946">
    <rdf:RDF>
      <cc:Work
         rdf:about="">
        <dc:format>image/svg+xml</dc:format>
        <dc:type
           rdf:resource="http://purl.org/dc/dcmitype/StillImage" />
        <dc:title></dc:title>
      </cc:Work>
    </rdf:RDF>
  </metadata>
  <defs
     id="defs944" />
  <g
     transform="translate(6.1035e-5,1913.7776)"
     id="g2149">
    <g
       style="fill:none"
       id="g2103"
       transform="translate(0,-1671.8983)">
      <path
         id="path2092"
         d="M 0,71 H 285.5 L 1920,0 v 1356 c 0,0 -51.5,-131.45 -376,-128.5 C 1219.5,1230.45 926.5,1037.96 520.5,1007.02 114.5,976.083 5.96047e-8,811.567 5.96047e-8,811.567 Z"
         style="fill:#9adbd0" />
    </g>
    <g
       style="fill:none"
       id="g2116"
       transform="translate(6.1035e-5,-2032.5678)">
      <path
         id="path2105"
         d="M 1920,123.07692 H -1.2207e-4 V 755 C -1.2207e-4,755 51.5,623.553 376,626.5 c 324.5,2.947 617.5,-189.54 1023.5,-220.478 406,-30.939 520.5,54.545 520.5,54.545 z"
         style="fill:#6e84fe" />
    </g>
    <path
       d="m 0,-1913.7776 h 1920.2417 l -0.2417,87.1978 c 0,0 -106.5,-57.516 -279,-57.516 -172.5,0 -653.5,201.536 -1058,201.536 -404.5,0 -583,-201.536 -583,-201.536 z"
       id="path938"
       style="fill:#fbf9fa" />
  </g>
</svg>
