<?xml version="1.0" encoding="UTF-8" standalone="no"?>
<svg
   xmlns:dc="http://purl.org/dc/elements/1.1/"
   xmlns:cc="http://creativecommons.org/ns#"
   xmlns:rdf="http://www.w3.org/1999/02/22-rdf-syntax-ns#"
   xmlns:svg="http://www.w3.org/2000/svg"
   xmlns="http://www.w3.org/2000/svg"
   style="fill:none"
   id="svg1088"
   version="1.1"
   viewBox="0 0 108.2341 66.294151"
   height="66.294151"
   width="108.2341">
  <metadata
     id="metadata1094">
    <rdf:RDF>
      <cc:Work
         rdf:about="">
        <dc:format>image/svg+xml</dc:format>
        <dc:type
           rdf:resource="http://purl.org/dc/dcmitype/StillImage" />
        <dc:title></dc:title>
      </cc:Work>
    </rdf:RDF>
  </metadata>
  <defs
     id="defs1092" />
  <path
     style="clip-rule:evenodd;fill:#004493;fill-rule:evenodd"
     id="path980"
     d="m 35.1842,24.92435 c -0.8858,0.2477 -1.7878,0.2896 -2.5986,0.7193 1.9299,-0.0769 3.8609,0.2273 5.7192,0.8063 0.6652,0.216 1.2531,0.5044 1.8548,0.8607 0.2933,0.2273 0.4435,0.4523 0.7403,0.5914 0.3765,0.2183 0.8916,0.2183 1.2646,0.0815 h 0.3673 c 1.1134,-0.2963 2.311,-0.5892 3.049,-1.3831 0,0.0655 0.0762,0.0655 0.1432,0.0655 -0.216,0.5825 -0.216,1.2361 -0.6606,1.7518 0,0.0724 -0.0808,0.2138 0.0647,0.2839 h 0.157 c -0.0773,0 -0.157,0 -0.157,0.0712 0,0.1425 0.2229,0 0.306,0.1425 -0.3707,0.0826 -0.7484,0.1595 -0.969,0.4501 0,0.0713 0.149,0.0713 0.2229,0.0713 -0.1397,0.1368 -0.3672,0.0724 -0.4458,0.2194 0,0 0.0786,0.0678 0.1513,0.0678 -0.0727,0 -0.1513,0 -0.1513,0.0781 v 0.2137 c -0.2159,0 -0.2887,0.147 -0.4504,0.2149 0.3026,0.2239 0.529,0 0.8223,0 -0.8223,0.2985 -1.4806,0.7294 -2.3133,0.9499 -0.1351,0 0,0.2093 -0.1351,0.2093 0.2264,0.156 0.3673,-0.0724 0.5936,-0.0724 -1.0417,0.5892 -2.0788,1.1015 -3.2003,1.7563 0,0 -0.1478,0.1447 -0.1478,0.2872 h -0.2945 c -0.1444,0.0849 -0.0739,0.2896 -0.2171,0.4354 0.3615,0.2217 0.8096,-0.2793 1.0359,0 0.0728,0 -0.1478,0.0815 -0.2979,0.0815 -0.0786,0 -0.0786,0.1402 -0.1548,0.1402 h -0.2229 c -0.1444,0.1436 -0.2899,0.2092 -0.2899,0.4286 -0.149,0 -0.2991,0 -0.3696,0.1459 1.6354,-0.2103 3.3424,-0.0633 4.8969,-0.8663 1.1907,-0.5858 2.3052,-1.391 3.2708,-2.4088 0,0 0.0693,0.0724 0.0693,0.1538 -0.2149,0.7226 -0.6618,1.2417 -1.2543,1.6703 -0.4539,0.2194 -0.7391,0.5859 -1.1168,0.7363 -0.2229,0.1413 -0.4377,0.285 -0.6733,0.4342 -2.7395,0.9342 -6.0114,0.5123 -8.3871,2.3218 0,-0.0769 -0.0785,-0.0769 -0.1501,-0.0769 -0.1502,0.1595 -0.3742,0.2262 -0.4458,0.3766 0,0.1346 0.2264,0.0712 0.2956,0.0712 0.4505,-0.2883 0.8928,-0.5145 1.4114,-0.6604 -0.5948,0.2906 -1.1688,0.8764 -1.7809,0.8764 h -3.7062 c 0.7311,-0.4354 1.4818,-0.9511 2.2937,-1.3842 -0.2206,-0.1368 -0.4389,-0.1368 -0.6756,-0.1368 -0.3604,0.0667 -0.8085,-0.155 -1.1827,0 -1.1087,0.4976 -2.5985,0.3607 -3.1922,1.5233 H 6.18406 L 6.16211,5 H 50.3229 c -0.887,0.4388 -1.6966,0.72266 -2.3618,1.52334 -0.5948,0.73962 -1.193,1.44983 -1.4102,2.32289 -0.9678,0.58242 -1.5672,1.46679 -2.0858,2.33532 -0.6733,1.2316 -1.6319,2.3263 -1.4875,3.7117 0.1559,1.1603 0.447,2.2516 0.6664,3.4922 0.082,0.4354 0.1467,0.8041 0.3084,1.2316 0.1409,0.4331 0,0.9488 0.2194,1.3141 0.149,0.2171 0.0704,0.5044 0.3753,0.6525 v 0.2873 c 0.067,0.0735 0.067,0.147 0.2195,0.147 v 0.2963 c 0.5844,0.7328 1.3328,1.3661 1.7081,2.1827 0.1455,0.4354 -0.7507,0.216 -1.1237,0.0678 -0.7369,-0.3641 -1.1792,-0.9409 -1.7809,-1.4566 0,0 -0.0739,0.0769 -0.0739,0.1504 0.2945,0.5067 1.4171,1.1649 0.8234,1.5188 -0.2945,0.1561 -0.6756,-0.2126 -0.9655,0.0826 -0.0808,0.1402 0,0.2838 0,0.432 -0.4446,-0.2918 -0.8916,-0.1482 -1.342,-0.2918 -0.2957,-0.0678 -0.3707,-0.657 -0.7357,-0.657 -0.9724,-0.2127 -1.8664,-0.4321 -2.8307,-0.5022 -1.327,-0.1606 -2.5974,-0.3686 -3.9314,-0.1606 -1.193,0.0747 -2.0777,0.9511 -2.8261,1.8231 v 0.2295 c 0.5221,0.0589 0.7484,-0.3777 1.1954,-0.519 0.7345,-0.1516 1.4101,-0.4456 2.1528,-0.5825 1.1121,-0.2182 2.1516,-0.51 3.1829,-0.4399 0.2275,0 0.5255,-0.0701 0.753,0 -1.3408,-0.0701 -2.5246,0.3653 -3.7881,0.7328 z" />
  <path
     style="clip-rule:evenodd;fill:#e1001a;fill-rule:evenodd"
     id="path982"
     d="m 71.7935,32.64175 c 0.1774,-0.5248 0.3698,-1.0914 0.076,-1.6127 -0.4435,-0.6491 0.4401,-0.8731 0.7408,-1.2994 0.2177,-0.3619 -0.1532,-0.587 -0.2258,-0.95 -0.0737,-0.147 -0.371,-0.0735 -0.515,-0.2952 0.515,-0.2137 1.3283,-0.6514 0.9585,-1.3039 -0.2177,-0.354 -0.5818,-0.9353 -0.144,-1.3051 0.515,-0.294 1.3295,-0.2171 1.5518,-0.7317 0.3687,-0.8753 -0.447,-1.6002 -0.8928,-2.3262 -0.2166,-0.4298 -0.515,-0.7216 -0.8076,-1.1694 -0.2892,-0.501 -0.6659,-0.9443 -0.8122,-1.5256 -0.2304,-0.5768 0.0703,-1.0947 0.0703,-1.6726 0.076,-1.0834 -0.2235,-2.1804 -0.5138,-3.2604 -0.2235,-0.5169 -0.3007,-1.1151 -0.5242,-1.6161 -0.0737,-0.2873 -0.1509,-0.5734 -0.371,-0.8663 -0.0725,-0.147 -0.0725,-0.3664 0,-0.5112 0.2973,-0.2194 0.5956,-0.4354 0.8963,-0.7249 0.2132,-0.3675 0.0703,-0.87417 -0.3007,-1.09809 -0.5218,-0.21374 -0.4492,0.51683 -0.8167,0.66045 H 69.941 c -0.0703,-0.22166 0.0806,-0.28386 0.2224,-0.43653 0,-0.06785 -10e-5,-0.22392 -0.0726,-0.22392 -0.2926,0 -0.591,-0.06446 -0.6682,-0.21374 -0.7373,-1.02008 -1.7742,-1.52108 -2.887,-1.96439 0.2926,0.07351 0.5841,0.14589 0.8928,0.14589 0.5092,0.0735 1.0991,0.0735 1.5541,-0.14589 C 69.3489,8.05346 69.4214,7.46991 69.57,7.1035 69.7129,6.81512 69.4986,6.36954 69.3477,6.16484 68.9814,5.57677 67.8984,5 67.8984,5 h 34.8737 l 0.004,32.22195 H 61.197 c 0.4436,-1.4567 1.2638,-2.8454 2.5933,-3.7739 0.2937,-0.1594 0.6705,-0.2262 1.0403,-0.3008 1.258,0 2.5183,0.3551 3.7706,0.5021 0.1498,0 0.3053,0.0747 0.4516,0.1538 0.447,0.0667 0.9688,0.0667 1.4055,-0.078 0.5218,-0.1448 1.1117,-0.4354 1.3352,-1.0834 z" />
  <path
     style="clip-rule:evenodd;fill:#ffffff;fill-rule:evenodd"
     id="path984"
     d="m 30.5115,28.27045 c -0.2299,0.0667 -0.4574,0.2216 -0.3777,0.363 0.2206,0.2997 0.6687,-0.0724 1.0383,-0.0724 -0.4458,0.1482 -0.9655,0.0724 -1.3363,0.4456 0.298,0.2183 0.5937,0.0656 0.8905,0.0656 0,0.1527 0.1548,0.1527 0.2206,0.225 -0.3684,0.1414 -0.6653,0.4287 -0.7403,0.6537 -0.1513,0.3608 -0.5209,0.5089 -0.7439,0.8007 v 0.2092 c -0.738,0.6627 -1.5557,1.0981 -2.1563,1.8943 0.0832,0 0.0832,0.0735 0.0832,0.1504 -0.1583,0.216 -0.4493,0.2952 -0.5209,0.5055 0,0.0713 0,0.147 0.0727,0.147 0.8859,-0.2759 1.5592,-0.9375 2.3781,-1.2349 0.5868,-0.1436 1.0361,-0.5033 1.5627,-0.6514 0.3638,-0.0735 0.8131,-0.2273 1.1897,-0.2952 0,0.0679 0,0.147 0.06,0.147 h 0.6075 c -0.0831,0.1482 -0.3719,0.0735 -0.3037,0.1482 0.2206,0.2239 0.6676,0.1481 0.9655,0 0.2276,-0.1482 0.4493,-0.1482 0.7427,-0.1482 0.0762,0 0.0762,-0.147 0.0762,-0.2137 0.2241,0.0667 0.3708,0.0667 0.5902,0.0667 1.7949,-0.3653 3.4962,-0.7249 5.1247,-1.5256 -1.9346,-1.4577 -4.3809,-1.9632 -6.6793,-2.6226 0.216,0 0.4412,0.2251 0.6664,0 -0.3696,-0.2793 -0.82,-0.1526 -1.185,-0.3539 0.0693,0 0.2241,0.0735 0.2957,-0.0724 -0.5983,-0.3054 -1.1885,-0.3054 -1.7879,-0.4366 0.373,-0.0769 0.5994,-0.372 0.5994,-0.7317 0,-0.0746 -0.1501,-0.0746 -0.2264,-0.0746 -0.8904,0.4343 -1.483,1.2429 -1.8502,2.1906 0.5151,0.2838 1.1145,0.0633 1.632,0.138 -0.2276,0.2126 -0.596,0.2126 -0.8882,0.2827 z" />
  <path
     style="clip-rule:evenodd;fill:#ffffff;fill-rule:evenodd"
     id="path986"
     d="m 27.4618,25.43045 c -0.7646,0.8007 -1.5546,1.5426 -2.5329,2.0447 -0.6653,1.3028 -1.4114,2.4744 -2.3781,3.7015 0,0.0735 0.0808,0.1515 0.0808,0.1515 1.781,-1.9565 3.4188,-3.628 5.716,-5.0145 0.1525,-0.0655 -0.2217,0.2104 0.0809,0.1505 0.9609,-0.216 1.2555,-1.1751 1.7059,-1.8966 0.5914,-0.9511 1.6355,-1.3118 2.3839,-2.1069 0,0.069 0,0.1369 -0.0832,0.2194 0.0832,0.0645 0.1548,0.0645 0.2206,0.0645 0.3096,-0.216 0.6711,-0.147 0.8975,-0.4286 -0.5879,-0.2228 -1.3433,-0.2918 -1.9346,-0.0781 -1.5627,0.7182 -2.8944,1.8864 -4.1568,3.1926 z" />
  <path
     style="clip-rule:evenodd;fill:#ffffff;fill-rule:evenodd"
     id="path988"
     d="m 28.5732,26.81925 c 0.0716,-0.1312 0.1513,-0.1436 0.2252,-0.2906 0,-0.0645 0,-0.1414 -0.0739,-0.1414 -0.2957,0.0769 -0.5255,0.3675 -0.5983,0.6604 0,0.0622 0.0728,0.0622 0.1559,0.0622 0.1467,-0.0622 0.2183,-0.1368 0.2911,-0.2906 z" />
  <path
     style="clip-rule:evenodd;fill:#ffffff;fill-rule:evenodd"
     id="path990"
     d="m 34.5195,32.34675 c -0.3003,0.1482 -0.8224,0.1482 -0.8917,0.5055 -0.0727,0.1504 0.2218,0.0735 0.3708,0.0735 0.5209,-0.2092 1.1169,0 1.5557,-0.4308 -0.1501,-0.1482 -0.3742,-0.0735 -0.5162,-0.302 -0.1479,-0.0588 -0.3708,0.0871 -0.5186,0.1538 z" />
  <path
     style="clip-rule:evenodd;fill:#2c4390;fill-rule:evenodd"
     id="path992"
     d="m 42.5548,36.20955 c 0.4516,-0.0939 0.8905,-0.3574 1.334,-0.5067 v 0.1493 c 1.1134,-0.4433 1.9346,-1.3865 3.0411,-1.745 0.0774,0 0.2241,0.1369 0.3719,0.069 0.6745,-0.5835 1.416,-1.244 2.3769,-1.0868 0,0.0622 0,0.1391 0.0751,0.1391 0.0786,0 0.1513,0 0.1513,-0.0769 -0.3037,0.2205 -0.5913,0.4411 -0.8939,0.6582 -0.0624,0.0735 0,0.1414 0.075,0.1414 0.3708,-0.1414 0.5914,-0.4354 0.9668,-0.5791 -0.0797,0.0769 -0.0797,0.2194 -0.149,0.2986 -1.4091,1.0167 -3.5689,3.4809 -3.5689,3.4809 H 36.2324 c 1.4865,-0.216 2.9741,-0.7181 4.464,-0.8708 0.5914,0 1.1885,0.0736 1.8584,-0.0712 z" />
  <path
     style="clip-rule:evenodd;fill:#9da0a1;fill-rule:evenodd"
     id="path994"
     d="m 69.0648,18.24155 c -0.4528,-0.1097 -0.8201,0 -1.2705,0 -0.596,0.1391 -1.1099,0.2137 -1.6285,0.4286 0.4458,-0.2895 0.8962,-0.5745 1.4067,-0.7215 0.3696,-0.0781 0.745,-0.2918 1.1111,-0.2918 0.4528,-0.0848 0.8986,-0.2183 1.2728,-0.0848 0.3661,0.1481 0.961,0.1481 1.0383,0.3766 0.1537,0.432 -0.224,0.8753 -0.6722,1.1569 -0.0716,0.147 0.223,0.2273 0.223,0.3687 -0.067,0.1481 -0.2923,0.2148 -0.4412,0.2148 -0.1467,0.0747 -0.3015,0.2986 -0.447,0.4445 0.1455,0 0,0.2183 0.1455,0.2183 -0.2968,0.3641 0.1548,1.0811 -0.2968,1.227 -0.5151,0.1504 -1.1042,0.1504 -1.7094,0 0.2968,-0.0735 0.6699,0.0735 0.8882,-0.2092 v -0.2929 c 0,-0.0815 -0.0739,-0.0815 -0.1386,-0.0815 -0.0786,0.0815 -0.1432,0.0815 -0.1432,0.0815 0,-0.155 -0.156,-0.2963 -0.2276,-0.2963 -0.4446,0.0803 -0.8246,-0.1459 -1.111,-0.4286 0.2159,-0.0826 0.4446,-0.1561 0.6664,-0.0826 0.2148,0 0.1386,-0.363 0.3638,-0.5033 h 0.2241 c 0.4504,-0.5835 1.3397,-0.717 1.4853,-1.3107 -0.0024,-0.1572 -0.4482,-0.1572 -0.7392,-0.2137 z" />
  <path
     style="clip-rule:evenodd;fill:#000000;fill-rule:evenodd"
     id="path996"
     d="m 8.13488,53.84135 c -0.19289,0 -0.36729,0.0339 -0.57634,0.0713 0,0.5586 -0.00924,1.5764 -0.00924,2.359 0.10395,0.0125 0.29452,0.0294 0.4181,0.0294 0.79579,0 1.33863,-0.4806 1.33863,-1.2293 -0.00116,-0.7215 -0.50126,-1.2304 -1.17115,-1.2304 z m 2.4913,5.935 c -0.36267,0 -0.56479,-0.0554 -0.75767,-0.1775 -0.33379,-0.2138 -0.67105,-0.7804 -0.85585,-1.1095 -0.33379,-0.5541 -0.70569,-1.1546 -1.05219,-1.6613 -0.06006,0.0159 -0.10857,0.0159 -0.14668,0.0159 -0.08893,0 -0.17209,-0.0159 -0.2668,-0.0159 v 0.5067 c 0,0.2578 0.00924,0.5123 0.00924,0.7679 0.00693,0.5157 0.0231,0.743 0.09586,0.942 0.09818,0.2375 0.2668,0.3608 0.59135,0.3913 v 0.2669 l -0.22406,-0.0169 c -0.2541,-0.0034 -0.60175,0 -1.05566,0 -0.44351,0 -0.79347,-0.0034 -1.05219,0 l -0.231,0.0169 v -0.268 c 0.2414,-0.0204 0.36382,-0.0679 0.47355,-0.181 0.10626,-0.1402 0.18249,-0.3064 0.19288,-0.5202 0.03119,-0.2838 0.04273,-0.4614 0.04273,-1.3989 v -1.6014 c 0,-1.1546 -0.04273,-1.4295 -0.10741,-1.7009 -0.07161,-0.2522 -0.26102,-0.3539 -0.60406,-0.3958 v -0.2612 c 0.19635,0.0147 0.39154,0.0022 0.58096,0.0022 0.50588,0 0.66296,0 1.25778,-0.0215 0.52783,-0.0214 0.82812,-0.0294 1.06951,-0.0294 0.6491,0 1.04873,0.0939 1.38136,0.3167 0.35458,0.2601 0.61215,0.7498 0.61215,1.2406 0,0.7871 -0.52668,1.417 -1.42294,1.7393 0.37421,0.4569 0.66296,0.9195 1.00252,1.4261 0.30838,0.4886 0.61792,0.9138 0.86278,1.1445 0.13286,0.1391 0.22056,0.1911 0.40656,0.2409 v 0.2669 c -0.2518,0.0497 -0.50127,0.0746 -0.80272,0.0746 z" />
  <path
     style="clip-rule:evenodd;fill:#000000;fill-rule:evenodd"
     id="path998"
     d="m 15.5942,59.58305 c -0.0693,0.1188 -0.1513,0.1425 -0.5891,0.1425 -0.2725,0 -0.5324,-0.0158 -0.8061,-0.0237 -0.3835,-0.017 -0.7704,-0.0215 -1.1562,-0.0215 -0.3858,0 -0.7715,0 -1.1527,0.0215 v -0.2228 c 0.3615,-0.0317 0.5232,-0.2239 0.551,-0.579 0.0242,-0.2319 0.0242,-0.4909 0.0242,-0.8912 v -2.2132 c 0,-0.4196 -0.0242,-0.6118 -0.0889,-0.7814 -0.0751,-0.2025 -0.2148,-0.2986 -0.4863,-0.3224 v -0.2182 h 3.7422 c 0,0.2296 -0.0023,0.4625 -0.0023,0.6853 0,0.199 -0.0104,0.3743 0.0023,0.5553 h -0.2841 c -0.0555,-0.6096 -0.3234,-0.7656 -1.274,-0.7656 -0.1721,0 -0.4089,0.0067 -0.6029,0.0113 -0.0138,0.3178 -0.0208,0.4161 -0.0208,0.8719 v 0.9081 c 0.1282,0.0057 0.2148,0.0057 0.3638,0.0057 0.8282,0 1.0765,-0.1142 1.1342,-0.5417 h 0.2888 c -0.0197,0.1221 -0.0197,0.3856 -0.0197,0.7746 0,0.397 0.0058,0.6413 0.0197,0.7566 h -0.2888 c -0.0254,-0.4342 -0.2402,-0.5485 -1.0625,-0.5485 -0.1502,0 -0.2923,0.0102 -0.4355,0.0102 0,0.4761 0.007,0.9884 0.007,1.4826 0,0.3269 0.0565,0.4332 0.2494,0.4795 0.1178,0.0306 0.3061,0.043 0.5544,0.043 0.8663,0 1.1608,-0.1911 1.3548,-0.8414 l 0.3061,0.0566 c -0.1097,0.562 -0.2414,1.0178 -0.328,1.1659 z m -1.7787,-5.6251 -0.3811,-0.2115 0.7911,-1.149 0.9171,0.1617 z" />
  <path
     style="clip-rule:evenodd;fill:#000000;fill-rule:evenodd"
     id="path1000"
     d="m 18.9306,57.36485 c -0.0727,0 -0.1189,0 -0.2206,-0.0113 l -0.1802,-0.3879 c 0.7542,-0.0418 1.1677,-0.4082 1.1677,-1.0099 0,-0.6209 -0.4366,-1.071 -1.0475,-1.071 -0.1017,0 -0.1733,0.0091 -0.3003,0.0306 0,0.4942 -0.022,0.9669 -0.022,1.4521 v 1.374 c 0,1.0291 0.0081,1.201 0.0959,1.4137 0.0704,0.2013 0.209,0.294 0.477,0.3234 v 0.2217 l -0.186,-0.0159 c -0.2148,-0.0045 -0.4954,-0.0045 -0.8824,-0.0045 -0.3707,0 -0.6699,0 -0.8743,0.0045 l -0.1906,0.0159 v -0.2217 c 0.3639,-0.0317 0.5209,-0.2251 0.5579,-0.5802 0.0242,-0.2307 0.0242,-0.372 0.0242,-1.1569 v -1.9463 c 0,-0.4196 -0.0242,-0.6118 -0.0889,-0.7814 -0.0762,-0.2025 -0.2171,-0.2997 -0.492,-0.3224 v -0.2205 c 0.0924,0.0023 0.0335,0.0023 0.3673,0.0023 0.1386,0 0.3268,0 0.5856,-0.0023 0.4157,-0.0237 0.8177,-0.0418 1.2254,-0.0418 1.1388,0 1.8168,0.5485 1.8168,1.4543 0,0.8674 -0.7796,1.4815 -1.833,1.4815 z" />
  <path
     style="clip-rule:evenodd;fill:#000000;fill-rule:evenodd"
     id="path1002"
     d="m 26.2023,54.86345 c -0.0832,0.1211 -0.1259,0.2737 -0.1444,0.5893 -0.015,0.3437 -0.0208,0.5937 -0.0208,1.0811 0,0.1753 0.0058,0.7136 0.0058,1.2632 0,0.5474 -0.0855,0.8833 -0.3164,1.2101 -0.3662,0.5157 -0.9795,0.7882 -1.7787,0.7882 -0.5013,0 -0.8905,-0.0927 -1.2462,-0.3268 -0.5637,-0.354 -0.7808,-0.8165 -0.7808,-1.6545 0,-0.8391 0.0196,-1.2056 0.0196,-1.486 0,-0.397 0.0266,-0.8041 -0.0439,-1.2124 -0.0496,-0.2759 -0.2044,-0.4014 -0.5313,-0.4218 v -0.2194 h 0.1767 c 0.2033,0.0158 0.4978,0.0158 0.8859,0.0158 0.3812,0 0.678,0 0.887,-0.0158 h 0.1872 v 0.2194 c -0.2437,0.0215 -0.3731,0.0973 -0.4563,0.2239 -0.0658,0.1143 -0.097,0.2714 -0.1039,0.622 -0.0116,0.4795 -0.0254,0.976 -0.0254,1.4713 0,1.3447 0.0323,1.6093 0.2795,1.8909 0.194,0.2138 0.5243,0.3619 0.9032,0.3619 0.537,0 1.0568,-0.2556 1.2185,-0.786 0.1086,-0.3313 0.1236,-0.5824 0.1236,-1.4668 v -0.7701 c 0,-0.8912 -0.0289,-1.1784 -0.119,-1.3051 -0.0855,-0.1379 -0.2102,-0.2205 -0.4193,-0.242 v -0.2194 c 0.3258,0.0158 0.4343,0.0158 0.8316,0.0158 0.4147,0 0.5279,0 0.8374,-0.0158 v 0.2194 c -0.1652,0.0192 -0.2818,0.0724 -0.3696,0.1696 z" />
  <path
     style="clip-rule:evenodd;fill:#000000;fill-rule:evenodd"
     id="path1004"
     d="m 29.4107,57.06845 c -0.1409,0 -0.2841,0.0113 -0.5012,0.0215 -0.0024,0.2137 -0.0024,0.2499 -0.0024,0.6027 v 0.4694 c 0,0.4444 0.0139,0.6842 0.0797,0.8334 0.0578,0.1957 0.2507,0.2862 0.5856,0.2862 0.6861,0 1.058,-0.3698 1.058,-1.0314 0,-0.7317 -0.4724,-1.1818 -1.2197,-1.1818 z m -0.0323,-2.1929 c -0.1409,0 -0.2807,0.0193 -0.4308,0.0193 -0.0046,0.5168 -0.0266,1.3785 -0.0381,1.7189 0.097,0.0114 0.2102,0.0181 0.3603,0.0181 0.7854,0 1.2439,-0.3234 1.2439,-0.8956 -0.0023,-0.5361 -0.4273,-0.8607 -1.1353,-0.8607 z m 1.7475,4.4558 c -0.3708,0.276 -0.8004,0.3789 -1.6147,0.3789 -0.4308,0 -0.8789,-0.0283 -1.3086,-0.0283 -0.1779,0 -0.4989,0 -0.7242,0.0045 l -0.0958,0.017 v -0.2228 c 0.3719,-0.0317 0.5151,-0.2194 0.5532,-0.579 0.0208,-0.2319 0.0312,-0.3766 0.0312,-1.1581 v -1.4815 c 0,-0.7215 -0.0116,-1.0415 -0.0924,-1.2451 -0.0785,-0.2024 -0.2252,-0.2986 -0.492,-0.3223 v -0.2194 c 0.3684,0.017 0.5844,0.017 1.1007,0.017 0.4608,0 1.155,-0.0283 1.61,-0.0283 0.7473,0 1.4126,0.3528 1.4126,1.1603 0,0.6141 -0.38,1.011 -1.1389,1.2044 0.8432,0.1708 1.2948,0.6435 1.2948,1.4057 0,0.4852 -0.1721,0.829 -0.5359,1.097 z" />
  <path
     style="clip-rule:evenodd;fill:#000000;fill-rule:evenodd"
     id="path1006"
     d="m 36.1774,59.59475 c -0.0693,0.1074 -0.1651,0.1312 -0.5682,0.1312 -0.1929,0 -0.4077,-0.0159 -0.6029,-0.0159 -0.499,-0.0248 -0.9459,-0.0294 -1.498,-0.0294 -0.4031,0 -0.6815,0 -0.9228,0.0215 v -0.2228 c 0.1882,-0.0113 0.2922,-0.0497 0.3915,-0.1549 0.1397,-0.1651 0.1836,-0.3619 0.1836,-0.9477 v -1.1049 -0.8482 c 0,-1.0472 0,-1.1931 -0.0877,-1.4091 -0.0751,-0.2024 -0.2241,-0.2985 -0.4874,-0.3223 v -0.2194 l 0.1882,0.0023 c 0.2229,0.0147 0.5105,0.0147 0.9205,0.0147 0.3904,0 0.6942,0 0.8998,-0.0147 l 0.1998,-0.0023 v 0.2194 c -0.4054,0 -0.5856,0.2126 -0.6295,0.6017 -0.0196,0.1289 -0.0231,0.2454 -0.0231,1.132 v 1.3096 c 0,1.0947 0.0035,1.2293 0.1097,1.3446 0.0855,0.0803 0.2564,0.1222 0.6006,0.1222 0.4401,0 0.6803,-0.0464 0.8813,-0.1527 0.2252,-0.1312 0.3869,-0.3562 0.4781,-0.6944 l 0.2946,0.0735 c -0.0844,0.4648 -0.2299,1.0212 -0.3281,1.166 z" />
  <path
     style="clip-rule:evenodd;fill:#000000;fill-rule:evenodd"
     id="path1008"
     d="m 38.9641,59.68535 c -0.1964,-0.0045 -0.4955,-0.0045 -0.8663,-0.0045 -0.3927,0 -0.6722,0 -0.887,0.0045 l -0.1871,0.017 v -0.2228 c 0.3719,-0.0317 0.5209,-0.2183 0.5498,-0.579 0.0242,-0.2319 0.03,-0.3766 0.03,-1.1581 v -1.3186 c 0,-0.1889 -0.0058,-0.4162 -0.0058,-0.6277 0,-0.4196 -0.0208,-0.6118 -0.0785,-0.7815 -0.0728,-0.2024 -0.2252,-0.2996 -0.4955,-0.3223 v -0.2182 l 0.1871,0.0102 c 0.2148,0.0045 0.4943,0.0045 0.887,0.0045 0.3708,0 0.6699,0 0.8663,-0.0045 l 0.1928,-0.0102 v 0.2182 c -0.343,0.0249 -0.5174,0.2364 -0.5497,0.6017 -0.0324,0.2216 -0.0324,0.432 -0.0324,1.132 v 1.3175 c 0,1.0292 0.0162,1.2011 0.0959,1.4137 0.0658,0.2013 0.216,0.294 0.4862,0.3234 v 0.2228 z" />
  <path
     style="clip-rule:evenodd;fill:#000000;fill-rule:evenodd"
     id="path1010"
     d="m 42.6675,54.91205 c -0.9817,0 -1.6747,0.8007 -1.6747,1.9203 0,1.3582 0.8293,2.428 1.8757,2.428 0.9875,0 1.6816,-0.8131 1.6816,-1.9485 0,-1.3469 -0.8293,-2.3998 -1.8826,-2.3998 z m 3.7803,6.1996 c -0.6226,0 -1.2913,-0.1922 -1.9266,-0.5428 -0.3568,-0.1832 -0.8662,-0.5213 -1.2312,-0.8222 -0.2725,0.0419 -0.3765,0.0475 -0.6317,0.0475 -1.617,0 -2.6808,-1.0404 -2.6808,-2.5954 0,-1.6658 1.1539,-2.8171 2.8575,-2.8171 1.6377,0 2.7407,1.0416 2.7407,2.5853 0,1.0969 -0.5763,2.0854 -1.4991,2.5355 0.2933,0.1368 0.5809,0.2951 0.8674,0.4659 0.8085,0.4795 1.3698,0.6865 1.8988,0.6865 0.328,0 0.6017,-0.069 0.9216,-0.2274 l 0.0994,0.2771 c -0.3869,0.2692 -0.8697,0.4071 -1.416,0.4071 z" />
  <path
     style="clip-rule:evenodd;fill:#000000;fill-rule:evenodd"
     id="path1012"
     d="m 51.1173,54.86345 c -0.0855,0.1211 -0.1328,0.2737 -0.1455,0.5893 -0.015,0.3437 -0.0266,0.5937 -0.0266,1.0811 0,0.1753 0.0127,0.7136 0.0127,1.2632 0,0.5474 -0.0878,0.8833 -0.3222,1.2101 -0.3696,0.5157 -0.9737,0.7882 -1.7775,0.7882 -0.5105,0 -0.8801,-0.0927 -1.2463,-0.3268 -0.5532,-0.354 -0.7727,-0.8165 -0.7727,-1.6545 0,-0.8391 0.0162,-1.2056 0.0162,-1.486 0,-0.397 0.0185,-0.8041 -0.0496,-1.2124 -0.052,-0.2759 -0.1952,-0.4014 -0.5348,-0.4218 v -0.2194 h 0.1802 c 0.2079,0.0158 0.5174,0.0158 0.8882,0.0158 0.3927,0 0.6814,0 0.8951,-0.0158 h 0.1848 v 0.2194 c -0.253,0.0215 -0.3708,0.0973 -0.4516,0.2239 -0.0763,0.1143 -0.0994,0.2714 -0.104,0.622 -0.03,0.4795 -0.0369,0.976 -0.0369,1.4713 0,1.3447 0.0415,1.6093 0.2852,1.8909 0.1999,0.2138 0.5094,0.3619 0.9021,0.3619 0.5371,0 1.0533,-0.2556 1.2254,-0.786 0.097,-0.3313 0.1155,-0.5824 0.1155,-1.4668 v -0.7701 c 0,-0.8912 -0.0254,-1.1784 -0.1155,-1.3051 -0.0866,-0.1379 -0.209,-0.2205 -0.4204,-0.242 v -0.2194 c 0.3257,0.0158 0.4401,0.0158 0.8385,0.0158 0.4008,0 0.5151,0 0.8328,-0.0158 v 0.2194 c -0.1721,0.0192 -0.2865,0.0724 -0.3731,0.1696 z" />
  <path
     style="clip-rule:evenodd;fill:#000000;fill-rule:evenodd"
     id="path1014"
     d="m 55.9955,59.58315 c -0.0705,0.1187 -0.1559,0.1425 -0.6006,0.1425 -0.2633,0 -0.5255,-0.0159 -0.8016,-0.0238 -0.373,-0.0169 -0.7669,-0.0215 -1.1492,-0.0215 -0.3811,0 -0.7669,0 -1.1492,0.0215 v -0.2228 c 0.3523,-0.0316 0.5209,-0.2239 0.5544,-0.579 0.0231,-0.2318 0.0231,-0.4908 0.0231,-0.8912 v -2.2131 c 0,-0.4196 -0.0231,-0.6119 -0.0935,-0.7815 -0.0659,-0.2024 -0.2206,-0.2986 -0.4828,-0.3223 v -0.2183 h 3.7364 v 0.6853 c 0,0.1991 -0.007,0.3744 0,0.5553 h -0.2853 c -0.0508,-0.6095 -0.3165,-0.7656 -1.2763,-0.7656 -0.1709,0 -0.4019,0.0068 -0.589,0.0113 -0.0116,0.3178 -0.0266,0.4162 -0.0266,0.8719 v 0.9082 c 0.1178,0.0056 0.2148,0.0056 0.3661,0.0056 0.8305,0 1.0776,-0.1142 1.1319,-0.5417 h 0.283 c -0.0185,0.1221 -0.0185,0.3857 -0.0185,0.7747 0,0.3969 0.0127,0.6412 0.0185,0.7566 h -0.283 c -0.0346,-0.4343 -0.2414,-0.5485 -1.066,-0.5485 -0.1479,0 -0.2876,0.0102 -0.4308,0.0102 0,0.4761 0.0161,0.9884 0.0161,1.4826 0,0.3268 0.0485,0.4331 0.246,0.4795 0.1144,0.0305 0.2957,0.043 0.5487,0.043 0.865,0 1.1619,-0.1912 1.3478,-0.8414 l 0.3176,0.0565 c -0.1212,0.5621 -0.2587,1.0178 -0.3372,1.166 z" />
  <path
     style="clip-rule:evenodd;fill:#000000;fill-rule:evenodd"
     id="path1016"
     d="m 63.4026,54.89385 c -0.0093,-0.6774 -0.417,-0.9398 -1.5119,-0.9398 -0.2264,0 -0.4308,0.0045 -0.6792,0.0328 -0.0254,0.6446 -0.0254,1.0936 -0.0254,2.1352 0.2322,0 0.3535,0.009 0.5152,0.009 0.9066,0 1.1792,-0.1391 1.2254,-0.6435 h 0.3511 c 0,0.2443 -0.0242,0.5248 -0.0242,0.7826 0,0.3596 0.0242,0.7249 0.0242,1.08 h -0.3511 c -0.0589,-0.5835 -0.2899,-0.6909 -1.3121,-0.6909 -0.1744,0 -0.2356,-1e-4 -0.4285,0.0067 v 1.0654 c 0,0.2035 0,0.441 0.0104,0.6842 0.0266,0.5213 0.0647,0.9816 0.6953,1.02 v 0.2658 l -0.2367,-0.0113 c -0.238,-0.0091 -0.5925,-0.0091 -1.0465,-0.0091 -0.4654,0 -0.8177,0 -1.0729,0.0091 l -0.2345,0.0113 v -0.2658 c 0.4366,-0.0384 0.6352,-0.2804 0.6722,-0.7023 0.0358,-0.2861 0.0358,-0.4625 0.0358,-1.4068 v -2.3681 c 0,-0.4999 -0.0358,-0.7261 -0.112,-0.9263 -0.0855,-0.2431 -0.2634,-0.3551 -0.5971,-0.4037 v -0.2522 h 4.4663 c -0.0277,0.1697 -0.0277,0.4863 -0.0277,0.8833 0,0.3732 0,0.4263 0.0277,0.6355 h -0.3638 z" />
  <path
     style="clip-rule:evenodd;fill:#000000;fill-rule:evenodd"
     id="path1018"
     d="m 66.7018,54.85395 c -0.1697,0 -0.3072,0.0215 -0.4897,0.0633 v 1.9543 c 0.0855,0.0169 0.2483,0.0214 0.3431,0.0214 0.6571,0 1.103,-0.3901 1.103,-1.0155 0,-0.5779 -0.4043,-1.0235 -0.9564,-1.0235 z m 2.0501,4.9161 c -0.2933,0 -0.4539,-0.0475 -0.6248,-0.1629 -0.2703,-0.1606 -0.5429,-0.6321 -0.7057,-0.8934 -0.2726,-0.4851 -0.5798,-0.9726 -0.8697,-1.3808 -0.0393,0.0056 -0.0774,0.0056 -0.1178,0.0056 -0.0739,0 -0.1352,-0.0056 -0.2218,-0.0056 v 0.4082 0.6322 c 0.0116,0.4332 0.0243,0.6062 0.0855,0.7758 0.0832,0.207 0.2217,0.2997 0.4943,0.3291 v 0.2228 l -0.1882,-0.0124 c -0.2091,-0.0046 -0.4967,0 -0.8686,0 -0.365,0 -0.6572,-0.0046 -0.8639,0 l -0.1871,0.0124 v -0.2228 c 0.1963,-0.0113 0.2864,-0.0497 0.38,-0.1549 0.0878,-0.1018 0.1478,-0.2454 0.1709,-0.4241 0.0243,-0.2319 0.0312,-0.3766 0.0312,-1.1581 v -1.3186 c 0,-0.9421 -0.0312,-1.1886 -0.0982,-1.4046 -0.0531,-0.207 -0.2229,-0.3042 -0.4839,-0.3268 v -0.2194 c 0.1524,0.0169 0.3107,0.0022 0.4689,0.0022 0.4181,0 0.5452,0 1.0441,-0.0249 0.4285,-0.0067 0.6791,-0.0192 0.8709,-0.0192 0.5405,0 0.8674,0.0792 1.1492,0.2726 0.3037,0.2092 0.492,0.6175 0.492,1.0212 0,0.6401 -0.4216,1.1682 -1.1584,1.4385 0.2991,0.3811 0.5405,0.7498 0.82,1.1807 0.2587,0.4003 0.5116,0.743 0.7149,0.9386 0.1097,0.1165 0.1744,0.1663 0.3327,0.1979 v 0.2228 c -0.2079,0.0453 -0.4101,0.0679 -0.6665,0.0679 z" />
  <path
     style="clip-rule:evenodd;fill:#000000;fill-rule:evenodd"
     id="path1020"
     d="m 71.9421,55.85065 c -0.2114,0.5282 -0.5036,1.2293 -0.6191,1.6105 h 1.1827 z m 2.5871,3.8395 c -0.1975,-0.0045 -0.4851,-0.0045 -0.857,-0.0045 -0.3719,0 -0.6606,0 -0.8581,0.0045 l -0.1871,0.0113 v -0.2228 c 0.2541,-0.0113 0.4054,-0.147 0.4054,-0.3641 0,-0.0702 -0.0208,-0.1957 -0.1109,-0.4196 -0.0866,-0.3008 -0.1513,-0.4908 -0.246,-0.7577 H 71.137 l -0.1605,0.4489 c -0.1236,0.3597 -0.1825,0.622 -0.1825,0.7532 0,0.2251 0.0993,0.3291 0.3638,0.3404 v 0.2228 c -0.3084,-0.0113 -0.4204,-0.0158 -0.8004,-0.0158 -0.3823,0 -0.492,0.0045 -0.7981,0.0158 v -0.2228 c 0.1236,-0.0113 0.1606,-0.0305 0.246,-0.104 0.1583,-0.1357 0.3061,-0.4117 0.5521,-1.0133 l 0.7588,-1.8886 c 0.2068,-0.5157 0.5209,-1.3368 0.7381,-2.0017 h 0.5428 c 0.067,0.2454 0.2368,0.6174 0.3477,0.9149 l 1.1353,2.8261 c 0.1871,0.4818 0.3257,0.7623 0.4285,0.9443 0.1017,0.1776 0.2206,0.2805 0.417,0.3223 v 0.2228 z" />
  <path
     style="clip-rule:evenodd;fill:#000000;fill-rule:evenodd"
     id="path1022"
     d="m 80.2264,54.92745 c -0.0843,0.1402 -0.1017,0.2714 -0.1167,0.6831 -0.0265,0.7023 -0.0335,1.806 -0.0335,2.324 v 1.2033 c 0,0.1741 0.0278,0.4569 0.0278,0.5632 h -0.551 c -0.5232,-0.6571 -1.5985,-1.9678 -1.5985,-1.9678 -0.1293,-0.1527 -1.1215,-1.3594 -1.6354,-1.9667 0,0.1697 -0.0104,0.0747 -0.0104,0.5779 v 0.5101 c 0,0.5835 0.0104,1.1625 0.0404,1.7517 0.0162,0.3303 0.0439,0.4954 0.1155,0.6481 0.0901,0.1515 0.2044,0.2182 0.4366,0.2239 v 0.2228 c -0.2784,-0.0215 -0.559,-0.0215 -0.8362,-0.0215 -0.2957,0 -0.5787,0 -0.8663,0.0215 v -0.2228 c 0.5302,-0.0113 0.5475,-0.4343 0.5602,-0.8539 0.0116,-0.3336 0.0208,-0.6061 0.0208,-1.106 v -1.6489 c 0,-0.6604 -0.0323,-0.8086 -0.1548,-0.985 -0.082,-0.1199 -0.1882,-0.1696 -0.425,-0.1934 v -0.2194 c 0.2679,0.017 0.365,0.017 0.6988,0.017 0.3234,0 0.4215,0 0.6895,-0.017 0.0901,0.1708 0.2518,0.3291 0.8027,0.9885 0.7808,0.9262 1.4888,1.7269 2.146,2.5445 v -1.7212 c 0,-0.7679 -0.0185,-0.9704 -0.0497,-1.1841 -0.0543,-0.2454 -0.2125,-0.3766 -0.5047,-0.4083 v -0.2194 c 0.3257,0.017 0.4377,0.017 0.8466,0.017 0.4065,0 0.5232,0 0.8396,-0.017 v 0.2194 c -0.2102,0.0113 -0.3222,0.043 -0.4423,0.2364 z" />
  <path
     style="clip-rule:evenodd;fill:#000000;fill-rule:evenodd"
     id="path1024"
     d="m 85.8152,59.51295 c -0.5197,0.198 -0.9794,0.2816 -1.6089,0.2816 l -0.0773,0.3054 h 0.1478 c 0.3072,0 0.5105,0.2137 0.5105,0.4693 0,0.4388 -0.3488,0.7249 -0.8847,0.7249 -0.1583,0 -0.3096,-0.0294 -0.4851,-0.0905 l 0.1132,-0.3053 c 0.1097,0.0317 0.1998,0.0622 0.2864,0.0622 0.2264,0 0.3777,-0.1097 0.3777,-0.3178 0,-0.1527 -0.0739,-0.2476 -0.1952,-0.2476 -0.0762,0 -0.1247,0.0316 -0.1825,0.061 l -0.1732,-0.052 0.1559,-0.6265 c -0.6988,-0.0668 -1.2151,-0.2884 -1.6482,-0.7249 -0.4885,-0.5022 -0.7507,-1.1694 -0.7507,-1.9633 0,-1.6896 1.1041,-2.7074 2.9371,-2.7074 0.5521,0 1.088,0.0667 1.5512,0.2273 -0.0174,0.1776 -0.0174,0.3495 -0.0174,0.5248 0,0.1425 0.0116,0.4218 0.0174,0.5993 h -0.3096 c -0.1317,-0.5507 -0.5879,-0.8583 -1.3132,-0.8583 -1.1238,0 -1.8156,0.7362 -1.8156,1.9531 0,1.4181 0.8142,2.4439 1.9172,2.4439 0.678,0 1.1285,-0.3269 1.3179,-0.9523 l 0.2991,0.0566 c -0.0624,0.2737 -0.1455,0.717 -0.1698,1.1365 z" />
  <path
     style="clip-rule:evenodd;fill:#000000;fill-rule:evenodd"
     id="path1026"
     d="m 88.7751,55.85065 c -0.2114,0.5282 -0.5013,1.2293 -0.6226,1.6105 h 1.1851 z m 2.5871,3.8395 c -0.1975,-0.0045 -0.4816,-0.0045 -0.8535,-0.0045 -0.3754,0 -0.6664,0 -0.8662,0.0045 l -0.1802,0.0113 v -0.2228 c 0.2518,-0.0113 0.4008,-0.147 0.4008,-0.3641 0,-0.0702 -0.0208,-0.1957 -0.104,-0.4196 -0.0912,-0.3008 -0.1605,-0.4908 -0.2599,-0.7577 h -1.5315 l -0.1582,0.4489 c -0.1224,0.3597 -0.1848,0.622 -0.1848,0.7532 0,0.2251 0.1074,0.3291 0.3592,0.3404 v 0.2228 c -0.3026,-0.0113 -0.4204,-0.0158 -0.79,-0.0158 -0.3777,0 -0.4943,0.0045 -0.7969,0.0158 v -0.2228 c 0.1166,-0.0113 0.1582,-0.0305 0.2391,-0.104 0.1559,-0.1357 0.3164,-0.4117 0.5578,-1.0133 l 0.7461,-1.8886 c 0.2125,-0.5157 0.5221,-1.3368 0.745,-2.0017 h 0.5463 c 0.0647,0.2454 0.2425,0.6174 0.3488,0.9149 l 1.1238,2.8261 c 0.1963,0.4818 0.3361,0.7623 0.4377,0.9443 0.1074,0.1776 0.2206,0.2805 0.4158,0.3223 v 0.2228 z" />
  <path
     style="clip-rule:evenodd;fill:#000000;fill-rule:evenodd"
     id="path1028"
     d="m 93.9702,59.68535 c -0.1837,-0.0045 -0.4851,-0.0045 -0.8616,-0.0045 -0.3939,0 -0.6769,0 -0.894,0.0045 l -0.1802,0.017 v -0.2228 c 0.3754,-0.0317 0.5198,-0.2183 0.5486,-0.579 0.0312,-0.2319 0.0358,-0.3766 0.0358,-1.1581 v -1.3186 c 0,-0.1889 -0.0046,-0.4162 -0.0046,-0.6277 0,-0.4196 -0.0208,-0.6118 -0.0808,-0.7815 -0.0797,-0.2024 -0.2241,-0.2996 -0.499,-0.3223 v -0.2182 l 0.1802,0.0102 c 0.2171,0.0045 0.5001,0.0045 0.894,0.0045 0.3753,0 0.6768,0 0.8616,-0.0045 l 0.2044,-0.0102 v 0.2182 c -0.3442,0.0249 -0.5209,0.2364 -0.5509,0.6017 -0.0312,0.2216 -0.0312,0.432 -0.0312,1.132 v 1.3175 c 0,1.0292 0.0115,1.2011 0.0947,1.4137 0.067,0.2013 0.2091,0.294 0.4874,0.3234 v 0.2228 z" />
  <path
     style="clip-rule:evenodd;fill:#000000;fill-rule:evenodd"
     id="path1030"
     d="m 96.4684,59.79455 c -0.4631,0 -0.7969,-0.0644 -1.3479,-0.2725 -0.0219,-0.2884 -0.0808,-0.7509 -0.1386,-1.1287 l 0.2992,-0.0429 c 0.1882,0.6288 0.6156,0.9624 1.237,0.9624 0.574,0 0.9528,-0.2839 0.9528,-0.7283 0,-0.3551 -0.246,-0.596 -0.6121,-0.8177 l -0.8385,-0.5259 c -0.5798,-0.3539 -0.9113,-0.726 -0.9113,-1.4204 0,-0.8843 0.6814,-1.4385 1.7325,-1.4385 0.5174,0 0.9471,0.0916 1.3132,0.2771 v 0.4964 0.5779 h -0.2934 c -0.1189,-0.5609 -0.4735,-0.8798 -1.0325,-0.8798 -0.5059,0 -0.8651,0.3053 -0.8651,0.7475 0,0.363 0.2726,0.613 0.6976,0.8946 l 0.6814,0.4297 c 0.6445,0.4038 1.013,0.8075 1.013,1.4295 0,0.8629 -0.767,1.4396 -1.8873,1.4396 z" />
  <path
     style="clip-rule:evenodd;fill:#000000;fill-rule:evenodd"
     id="path1032"
     d="m 102.9041,59.58315 c -0.066,0.1187 -0.151,0.1425 -0.595,0.1425 -0.271,0 -0.532,-0.0159 -0.809,-0.0238 -0.38,-0.0169 -0.7661,-0.0215 -1.1484,-0.0215 -0.3846,0 -0.7657,0 -1.1388,0.0215 v -0.2228 c 0.343,-0.0316 0.5059,-0.2239 0.5417,-0.579 0.0242,-0.2318 0.0242,-0.4908 0.0242,-0.8912 v -2.2131 c 0,-0.4196 -0.0242,-0.6119 -0.0854,-0.7815 -0.0809,-0.2024 -0.2137,-0.2986 -0.4794,-0.3223 v -0.2183 h 3.7391 c 0,0.2296 -0.012,0.4626 -0.012,0.6853 0,0.1991 -0.016,0.3744 0.012,0.5553 h -0.293 c -0.058,-0.6095 -0.329,-0.7656 -1.277,-0.7656 -0.173,0 -0.4088,0.0068 -0.5994,0.0113 -0.0173,0.3178 -0.0243,0.4162 -0.0243,0.8719 v 0.9082 c 0.1213,0.0056 0.216,0.0056 0.3617,0.0056 0.834,0 1.082,-0.1142 1.139,-0.5417 h 0.284 c -0.015,0.1221 -0.015,0.3857 -0.015,0.7747 0,0.3969 0.01,0.6412 0.015,0.7566 h -0.284 c -0.021,-0.4343 -0.244,-0.5485 -1.069,-0.5485 -0.1395,0 -0.2838,0.0102 -0.4305,0.0102 0,0.4761 0.009,0.9884 0.009,1.4826 0,0.3268 0.0578,0.4331 0.2576,0.4795 0.1167,0.0305 0.2987,0.043 0.5427,0.043 0.868,0 1.169,-0.1912 1.354,-0.8414 l 0.31,0.0565 c -0.113,0.5621 -0.244,1.0178 -0.33,1.166 z" />
  <path
     style="clip-rule:evenodd;fill:#000000;fill-rule:evenodd"
     id="path1034"
     d="m 8.42915,46.28935 c -0.07392,0.0848 -0.19057,0.1244 -0.46777,0.1244 -0.38114,0 -0.75651,-0.0283 -1.13419,-0.0396 -0.33148,0 -0.5798,-0.0136 -0.7519,-0.0136 -0.22984,0 -0.80156,0.0136 -0.97018,0.0136 L 5,46.38545 5.02888,46.22375 c 0.23446,-0.026 0.37883,-0.095 0.48856,-0.2352 0.12242,-0.1516 0.1975,-0.371 0.30491,-0.7939 0.10164,-0.4196 0.15246,-0.665 0.31878,-1.4499 l 0.11896,-0.6141 c 0.12705,-0.605 0.17209,-0.959 0.17209,-1.149 0,-0.3336 -0.12012,-0.4817 -0.45737,-0.5179 l 0.03118,-0.1617 c 0.04736,0.0124 0.08663,0.0124 0.10742,0.0124 h 0.86046 0.87779 c 0.02425,0 0.0693,0 0.12127,-0.0124 l -0.03003,0.1617 c -0.23561,0.0192 -0.36844,0.0724 -0.49087,0.2307 -0.19172,0.2522 -0.29914,0.57 -0.58904,2.0515 l -0.10279,0.5134 c -0.12012,0.6175 -0.16747,0.8256 -0.20559,1.1128 -0.01617,0.0939 -0.02656,0.1911 -0.02656,0.2307 0,0.3065 0.1513,0.397 0.65718,0.397 0.87548,0 1.20927,-0.1799 1.49224,-0.8041 l 0.21021,0.0825 c -0.19288,0.4931 -0.36267,0.8822 -0.45853,1.0111 z" />
  <path
     style="clip-rule:evenodd;fill:#000000;fill-rule:evenodd"
     id="path1036"
     d="m 9.89615,46.46725 c -0.15477,0 -0.26334,-0.0814 -0.26334,-0.2194 0,-0.0656 0.02426,-0.19 0.06699,-0.3551 0.09818,-0.4117 0.23793,-0.959 0.32109,-1.244 0.10741,-0.3902 0.15015,-0.6774 0.15015,-0.7894 0,-0.095 -0.04274,-0.1323 -0.13052,-0.1323 -0.06814,0 -0.14321,0.0192 -0.29798,0.0678 l -0.05775,0.0125 -0.02657,-0.2115 c 0.43197,-0.1583 0.857,-0.2612 1.06028,-0.2612 0.12243,0 0.17209,0.0429 0.17209,0.1334 0,0.0871 -0.04273,0.3302 -0.18595,0.8799 l -0.1155,0.4342 c -0.1975,0.7396 -0.2437,1.0054 -0.2437,1.1343 0,0.0973 0.06352,0.1651 0.17902,0.1651 0.07508,0 0.21021,-0.0237 0.42966,-0.0972 l 0.0127,0.2081 c -0.40655,0.1606 -0.85815,0.2748 -1.07067,0.2748 z m 0.85238,-3.8994 c -0.24139,0 -0.4054,-0.1482 -0.4054,-0.3619 0,-0.2703 0.20328,-0.4625 0.4874,-0.4625 0.23447,0 0.37537,0.1357 0.37537,0.363 0.0012,0.2669 -0.19519,0.4614 -0.45737,0.4614 z" />
  <path
     style="clip-rule:evenodd;fill:#000000;fill-rule:evenodd"
     id="path1038"
     d="m 14.1758,43.66435 c -0.1362,0 -0.3118,0.0509 -0.5243,0.1651 -0.2229,0.1119 -0.3996,0.2318 -0.484,0.3551 -0.0981,0.1413 -0.1778,0.3687 -0.2945,0.8674 -0.1189,0.4874 -0.1859,0.786 -0.1859,0.8957 0,0.1289 0.1859,0.2148 0.4931,0.2148 0.3223,0 0.5949,-0.147 0.7947,-0.4184 0.3107,-0.4478 0.5463,-1.132 0.5463,-1.6296 -0.0012,-0.2896 -0.1213,-0.4501 -0.3454,-0.4501 z m 0.0047,2.4461 c -0.3003,0.2692 -0.6618,0.3653 -1.2128,0.3653 -0.6156,0 -0.9748,-0.0961 -0.9748,-0.2522 0,-0.0645 0.0046,-0.1447 0.0832,-0.4524 l 0.4019,-1.737 c 0.134,-0.5576 0.2356,-0.9964 0.3812,-1.6206 0.0785,-0.3642 0.1085,-0.5723 0.1085,-0.6729 0,-0.0837 -0.0485,-0.1391 -0.1339,-0.1391 -0.0543,0 -0.2253,0.0441 -0.3385,0.0758 l -0.0173,-0.2206 0.1005,-0.0384 c 0.4204,-0.1176 0.7704,-0.2047 0.9367,-0.2047 0.097,0 0.1617,0.0452 0.1617,0.1221 0,0.0814 -0.0381,0.2771 -0.1721,0.8459 l -0.2368,1.0043 c -0.0739,0.3302 -0.1028,0.4546 -0.1247,0.5564 0.4955,-0.2771 0.9228,-0.4105 1.312,-0.4105 0.4771,0 0.7104,0.2341 0.7104,0.7215 0,0.7079 -0.4158,1.581 -0.9852,2.0571 z" />
  <path
     style="clip-rule:evenodd;fill:#000000;fill-rule:evenodd"
     id="path1040"
     d="m 17.6691,43.64095 c -0.3777,0 -0.775,0.4987 -0.9667,1.2451 h 0.0808 c 0.7184,0 1.2671,-0.3788 1.2671,-0.8617 0,-0.2183 -0.1721,-0.3834 -0.3812,-0.3834 z m -0.8073,1.5165 c -0.0497,0 -0.1236,0 -0.2287,-0.0056 -0.0196,0.1413 -0.0243,0.2623 -0.0243,0.3687 0,0.3992 0.1329,0.5959 0.4112,0.5959 0.2495,0 0.5613,-0.1334 1.0129,-0.4116 l 0.0901,0.2578 c -0.5775,0.3563 -1.0117,0.5214 -1.4114,0.5214 -0.477,0 -0.7472,-0.2929 -0.7472,-0.7939 0,-1.2531 0.8731,-2.3557 1.8756,-2.3557 0.4944,0 0.7901,0.2228 0.7901,0.5949 0,0.709 -0.7681,1.2281 -1.7683,1.2281 z" />
  <path
     style="clip-rule:evenodd;fill:#000000;fill-rule:evenodd"
     id="path1042"
     d="m 21.7482,44.32025 -0.2541,-0.0193 c 0.0092,-0.095 0.0196,-0.2114 0.0196,-0.3064 0,-0.1357 -0.1235,-0.2398 -0.321,-0.2398 -0.1144,0 -0.2322,0.069 -0.335,0.1843 -0.2991,0.3337 -0.4169,0.8527 -0.5844,1.6941 l -0.1444,0.7464 c -0.3072,0.0114 -0.3754,0.0227 -0.6791,0.0487 0.0774,-0.2748 0.1351,-0.5101 0.1975,-0.7702 l 0.1709,-0.6989 c 0.1132,-0.4795 0.1675,-0.7916 0.1675,-0.9522 0,-0.1832 -0.0497,-0.2635 -0.1363,-0.2635 -0.0485,0 -0.1166,0.0113 -0.1963,0.0283 l -0.2022,0.0554 -0.0127,-0.2183 c 0.38,-0.1583 0.8097,-0.2759 1.0049,-0.2759 0.0877,0 0.1282,0.0305 0.1467,0.1074 0.0184,0.0837 0.0334,0.1991 0.045,0.3212 0.35,-0.2748 0.6606,-0.4331 0.8801,-0.4331 0.1513,0 0.3372,0.0655 0.5186,0.1956 -0.1352,0.2816 -0.2299,0.5327 -0.2853,0.7962 z" />
  <path
     style="clip-rule:evenodd;fill:#000000;fill-rule:evenodd"
     id="path1044"
     d="m 24.3863,43.79835 -0.6491,-0.017 -0.3153,1.5686 c -0.0936,0.4071 -0.0994,0.518 -0.0994,0.5768 0,0.1097 0.0497,0.1639 0.156,0.1639 0.0554,0 0.1732,-0.0248 0.3511,-0.0769 l 0.0785,-0.0294 0.0277,0.2194 c -0.4042,0.1776 -0.8258,0.2726 -1.0533,0.2726 -0.1606,0 -0.2634,-0.0713 -0.2634,-0.2183 0,-0.1357 0.0266,-0.3132 0.0971,-0.5541 0.0577,-0.2782 0.1178,-0.4965 0.1801,-0.7939 l 0.2426,-1.1298 -0.4181,0.0124 0.0531,-0.2431 c 0.5359,-0.0984 0.7173,-0.4942 0.8651,-0.9455 l 0.3742,-0.078 -0.194,0.8957 h 0.6456 z" />
  <path
     style="clip-rule:evenodd;fill:#000000;fill-rule:evenodd"
     id="path1046"
     d="m 26.72,43.64095 c -0.3765,0 -0.7681,0.4987 -0.9656,1.2451 h 0.0739 c 0.7196,0 1.2671,-0.3788 1.2671,-0.8617 0,-0.2183 -0.171,-0.3834 -0.3754,-0.3834 z m -0.812,1.5166 c -0.0427,0 -0.1236,0 -0.2148,-0.0057 -0.0312,0.1414 -0.037,0.2624 -0.037,0.3687 0,0.3992 0.1386,0.596 0.4193,0.596 0.246,0 0.5579,-0.1335 1.0199,-0.4117 l 0.0796,0.2579 c -0.5705,0.3562 -1.0106,0.5213 -1.4102,0.5213 -0.4805,0 -0.7438,-0.2929 -0.7438,-0.7939 0,-1.253 0.8685,-2.3557 1.8734,-2.3557 0.5001,0 0.7796,0.2228 0.7796,0.5949 0.0023,0.7091 -0.7577,1.2282 -1.766,1.2282 z m 0.8732,-2.2913 -0.2495,-0.2069 0.9448,-1.0495 0.7045,0.1674 z" />
  <path
     style="clip-rule:evenodd;fill:#000000;fill-rule:evenodd"
     id="path1048"
     d="m 41.6424,42.41515 h -0.2206 c 0.0116,-0.0837 0.0139,-0.1142 0.0139,-0.1708 0,-0.4241 -0.2749,-0.5643 -1.0626,-0.5643 -0.2529,0 -0.4978,0 -0.7611,0.0226 -0.1583,0.6345 -0.2645,1.1852 -0.3997,1.8649 h 0.2842 c 0.5012,0 0.7103,-0.0079 0.8847,-0.0441 0.298,-0.0532 0.4539,-0.2194 0.544,-0.5191 h 0.216 c -0.1075,0.4478 -0.2426,1.0857 -0.3061,1.486 H 40.633 c 0.0138,-0.0509 0.0161,-0.0973 0.0161,-0.1278 0,-0.3336 -0.209,-0.4399 -0.8443,-0.4399 -0.3846,0 -0.5243,0.0023 -0.6652,0.0023 -0.0439,0.199 0,0.0294 -0.1744,0.9035 -0.0936,0.4309 -0.1213,0.7023 -0.1213,0.8335 0,0.2669 0.1409,0.3404 0.6583,0.3404 0.9852,0 1.2878,-0.1538 1.5905,-0.8074 l 0.1986,0.0723 c -0.1732,0.509 -0.365,0.9002 -0.4701,1.0371 -0.0762,0.0848 -0.1744,0.1142 -0.5024,0.1142 -0.2726,0 -0.5602,-0.0113 -0.8293,-0.0226 -0.3603,-0.0068 -0.7195,-0.0181 -1.0845,-0.0181 -0.3707,0 -0.7253,0.0113 -1.0903,0.0113 l 0.0358,-0.1606 c 0.2264,-0.0271 0.3684,-0.0961 0.4759,-0.2363 0.127,-0.1471 0.2079,-0.3721 0.3222,-0.7939 0.0947,-0.4241 0.1317,-0.5915 0.3038,-1.4499 l 0.1247,-0.6107 c 0.1282,-0.6016 0.1698,-0.9612 0.1698,-1.1524 0,-0.3336 -0.1224,-0.4817 -0.4516,-0.5179 l 0.0323,-0.1617 h 3.5412 c -0.0901,0.3415 -0.1663,0.7543 -0.2264,1.1094 z m -1.4749,-1.6285 -0.2506,-0.2025 0.9528,-1.054 0.7138,0.1765 z" />
  <path
     style="clip-rule:evenodd;fill:#000000;fill-rule:evenodd"
     id="path1050"
     d="m 44.1237,46.71515 c -0.2622,-0.1007 -0.5775,-0.2059 -0.9136,-0.3009 -0.5301,0.1278 -0.9136,0.5203 -0.9136,0.9636 0,0.4116 0.3627,0.6842 0.9217,0.6842 0.6814,0 1.3028,-0.4433 1.3028,-0.9409 0.0011,-0.181 -0.1167,-0.2963 -0.3973,-0.406 z m -0.1178,-3.0874 c -0.4193,0 -0.7658,0.4331 -0.7658,0.9567 0,0.3483 0.2125,0.587 0.5232,0.587 0.4031,0 0.7427,-0.4106 0.7427,-0.9251 0.0023,-0.3868 -0.1917,-0.6186 -0.5001,-0.6186 z m 1.4899,0.1594 -0.5278,-0.0056 c 0.0924,0.1583 0.1236,0.285 0.1236,0.4625 0,0.7057 -0.6041,1.2361 -1.3768,1.2361 -0.1548,0 -0.2622,-0.0124 -0.4239,-0.0599 -0.1917,0.1165 -0.2575,0.164 -0.2575,0.2363 0,0.0826 0.0854,0.129 0.4285,0.2341 l 0.6156,0.1821 c 0.6283,0.1945 0.9401,0.3709 0.9401,0.8165 0,0.8154 -0.8269,1.4476 -1.8641,1.4476 -0.8582,0 -1.3871,-0.3981 -1.3871,-1.0438 0,-0.6017 0.3996,-0.8822 1.036,-1.0393 -0.395,-0.1392 -0.4782,-0.1991 -0.4782,-0.3291 0,-0.1595 0.2275,-0.3721 0.6953,-0.6288 -0.2425,-0.1731 -0.358,-0.3891 -0.358,-0.6876 0,-0.7261 0.5936,-1.2768 1.3721,-1.2768 0.2044,0 0.3488,0.026 0.5232,0.0859 h 1.0279 z" />
  <path
     style="clip-rule:evenodd;fill:#000000;fill-rule:evenodd"
     id="path1052"
     d="m 48.0613,43.65765 c -0.3037,0 -0.6167,0.2273 -0.88,0.6581 -0.3015,0.4592 -0.5106,1.0812 -0.5106,1.4872 0,0.2318 0.1086,0.3574 0.3165,0.3574 0.2853,0 0.7912,-0.2409 0.9898,-0.4343 0.1074,-0.1097 0.156,-0.2612 0.2472,-0.5587 0.1167,-0.4546 0.2368,-0.8934 0.3118,-1.4023 -0.1824,-0.0701 -0.3453,-0.1074 -0.4747,-0.1074 z m 0.3627,2.8261 c -0.134,0 -0.1894,-0.0927 -0.2587,-0.4705 -0.5752,0.3258 -0.9991,0.4773 -1.4091,0.4773 -0.4643,0 -0.7403,-0.2432 -0.7403,-0.6593 0,-0.4083 0.2032,-0.9771 0.5162,-1.4397 0.4205,-0.6457 0.9344,-1.0551 1.7395,-1.0551 0.3441,0 0.6629,0.061 1.0059,0.1447 l -0.0415,0.1267 c -0.2807,0.881 -0.4782,1.84 -0.4782,2.1657 0,0.2115 0.045,0.3166 0.1363,0.3166 0.0612,0 0.2275,-0.0384 0.4204,-0.1063 l 0.0231,0.2308 c -0.4042,0.1458 -0.7819,0.2691 -0.9136,0.2691 z" />
  <path
     style="clip-rule:evenodd;fill:#000000;fill-rule:evenodd"
     id="path1054"
     d="m 51.8743,41.98985 c -0.2552,1.0144 -0.5116,2.1419 -0.7657,3.2231 -0.0751,0.3494 -0.119,0.5734 -0.119,0.7023 0,0.0973 0.0647,0.1527 0.1721,0.1527 0.0808,0 0.2183,-0.0249 0.4331,-0.0849 l 0.0185,0.2081 c -0.4008,0.1584 -0.8824,0.2929 -1.0926,0.2929 -0.149,0 -0.2333,-0.0927 -0.2333,-0.2363 0,-0.1075 0.0242,-0.2432 0.1362,-0.7261 0.2484,-1.0087 0.5094,-2.0797 0.7173,-3.0319 0.0924,-0.4569 0.1421,-0.6695 0.1421,-0.7442 0,-0.0859 -0.0497,-0.1345 -0.1306,-0.1345 -0.0762,0 -0.2194,0.0361 -0.3441,0.078 l -0.0162,-0.2296 c 0.3973,-0.1414 0.835,-0.2431 1.058,-0.2431 0.1074,0 0.1617,0.0441 0.1617,0.1221 -0.0012,0.0814 -0.0358,0.2635 -0.1375,0.6514 z" />
  <path
     style="clip-rule:evenodd;fill:#000000;fill-rule:evenodd"
     id="path1056"
     d="m 52.962,46.46725 c -0.1617,0 -0.2598,-0.0814 -0.2598,-0.2194 0,-0.0656 0.023,-0.19 0.0658,-0.3551 0.1028,-0.4117 0.2333,-0.959 0.3164,-1.244 0.1052,-0.3902 0.1514,-0.6774 0.1514,-0.7894 0,-0.095 -0.0462,-0.1323 -0.1294,-0.1323 -0.0728,0 -0.1386,0.0192 -0.3049,0.0678 l -0.0555,0.0125 -0.0208,-0.2115 c 0.4251,-0.1583 0.8466,-0.2612 1.058,-0.2612 0.1178,0 0.1629,0.0429 0.1629,0.1334 0,0.0871 -0.0324,0.3302 -0.1791,0.8799 l -0.1097,0.4342 c -0.2021,0.7396 -0.2425,1.0054 -0.2425,1.1343 0,0.0973 0.0577,0.1651 0.1755,0.1651 0.0728,0 0.2045,-0.0237 0.4285,-0.0972 l 0.0116,0.2081 c -0.4193,0.1606 -0.8639,0.2748 -1.0684,0.2748 z m 0.842,-3.8994 c -0.2379,0 -0.3904,-0.1482 -0.3904,-0.3619 0,-0.2703 0.1975,-0.4625 0.4793,-0.4625 0.2368,0 0.3835,0.1357 0.3835,0.363 0,0.2669 -0.2033,0.4614 -0.4724,0.4614 z" />
  <path
     style="clip-rule:evenodd;fill:#000000;fill-rule:evenodd"
     id="path1058"
     d="m 56.8777,43.79835 -0.6456,-0.017 -0.3315,1.5686 c -0.0901,0.4071 -0.0901,0.518 -0.0901,0.5768 0,0.1097 0.0462,0.1639 0.149,0.1639 0.0601,0 0.1756,-0.0248 0.3662,-0.0769 l 0.0704,-0.0294 0.0243,0.2194 c -0.4008,0.1776 -0.8189,0.2726 -1.0534,0.2726 -0.1536,0 -0.2564,-0.0713 -0.2564,-0.2183 0,-0.1357 0.0219,-0.3132 0.0924,-0.5541 0.0635,-0.2782 0.1143,-0.4965 0.1767,-0.7939 l 0.2449,-1.1298 -0.4077,0.0124 0.0485,-0.2431 c 0.5301,-0.0984 0.7091,-0.4942 0.8674,-0.9455 l 0.3638,-0.078 -0.1929,0.8957 h 0.6491 z" />
  <path
     style="clip-rule:evenodd;fill:#000000;fill-rule:evenodd"
     id="path1060"
     d="m 59.2091,43.64095 c -0.3869,0 -0.7773,0.4987 -0.969,1.2451 h 0.082 c 0.7138,0 1.2624,-0.3788 1.2624,-0.8617 0,-0.2183 -0.1698,-0.3834 -0.3754,-0.3834 z m -0.8073,1.5166 c -0.0589,0 -0.1282,0 -0.2344,-0.0057 -0.0243,0.1414 -0.0243,0.2624 -0.0243,0.3687 0,0.3992 0.134,0.596 0.4146,0.596 0.2518,0 0.5614,-0.1335 1.0141,-0.4117 l 0.0913,0.2579 c -0.5798,0.3562 -1.0176,0.5213 -1.4068,0.5213 -0.4897,0 -0.7519,-0.2929 -0.7519,-0.7939 0,-1.253 0.8662,-2.3557 1.8722,-2.3557 0.4909,0 0.7912,0.2228 0.7912,0.5949 0.0011,0.7091 -0.7739,1.2282 -1.766,1.2282 z m 0.8674,-2.2913 -0.2518,-0.2069 0.9517,-1.0495 0.7011,0.1674 z" />
  <path
     style="clip-rule:evenodd;fill:#000000;fill-rule:evenodd"
     id="path1062"
     d="m 74.0275,42.40345 h -0.2333 c 0.0092,-0.0713 0.0208,-0.1391 0.0208,-0.1764 0,-0.1527 -0.0554,-0.2703 -0.1421,-0.3653 -0.1513,-0.1368 -0.4285,-0.1889 -1.0233,-0.1889 -0.1559,0 -0.38,0.0068 -0.5705,0.0181 -0.1386,0.6209 -0.2565,1.2271 -0.4031,1.8739 0.1466,0 0.2922,0.0057 0.4412,0.0057 0.8697,0 1.036,-0.0735 1.1965,-0.5677 h 0.2114 c -0.1236,0.4942 -0.2229,0.9816 -0.2899,1.486 h -0.2264 c 0.0116,-0.0509 0.022,-0.0927 0.022,-0.1233 0,-0.1357 -0.0486,-0.2646 -0.149,-0.3279 -0.134,-0.1063 -0.2876,-0.1165 -0.7554,-0.1165 -0.2495,0 -0.3153,0.0022 -0.529,0.0022 l -0.0981,0.535 c -0.1398,0.7102 -0.1976,1.0619 -0.1976,1.2734 0,0.3132 0.1398,0.4557 0.4574,0.4942 l -0.0242,0.1617 -0.1375,-0.0113 h -0.693 -0.9921 l -0.134,0.0113 0.0312,-0.1617 c 0.2402,-0.026 0.38,-0.095 0.4839,-0.2409 0.1317,-0.1459 0.2091,-0.3653 0.3107,-0.7883 0.1144,-0.4331 0.156,-0.6627 0.3165,-1.4498 l 0.1247,-0.6141 c 0.119,-0.605 0.1721,-0.959 0.1721,-1.149 0,-0.3336 -0.1247,-0.4817 -0.4573,-0.5179 l 0.0207,-0.1617 h 3.4662 c -0.0809,0.3438 -0.1583,0.7283 -0.2195,1.0992 z" />
  <path
     style="clip-rule:evenodd;fill:#000000;fill-rule:evenodd"
     id="path1064"
     d="m 76.6804,44.32025 -0.2634,-0.0193 c 0.0197,-0.095 0.0277,-0.2114 0.0277,-0.3064 0,-0.1357 -0.1235,-0.2398 -0.321,-0.2398 -0.1121,0 -0.2253,0.069 -0.3327,0.1843 -0.2933,0.3337 -0.41,0.8527 -0.5809,1.6941 l -0.156,0.7464 c -0.2922,0.0114 -0.3696,0.0227 -0.6698,0.0487 0.0785,-0.2748 0.1339,-0.5101 0.1928,-0.7702 l 0.171,-0.6989 c 0.1155,-0.4795 0.1686,-0.7916 0.1686,-0.9522 0,-0.1832 -0.0416,-0.2635 -0.1305,-0.2635 -0.0485,0 -0.1155,0.0113 -0.201,0.0283 l -0.1952,0.0554 -0.0277,-0.2183 c 0.3881,-0.1583 0.8235,-0.2759 1.021,-0.2759 0.0751,0 0.1178,0.0305 0.134,0.1074 0.0277,0.0837 0.0485,0.1991 0.0554,0.3212 0.3511,-0.2748 0.6514,-0.4331 0.8743,-0.4331 0.1513,0 0.3315,0.0655 0.5186,0.1956 -0.1212,0.2816 -0.2229,0.5327 -0.2852,0.7962 z" />
  <path
     style="clip-rule:evenodd;fill:#000000;fill-rule:evenodd"
     id="path1066"
     d="m 79.3942,43.65765 c -0.3153,0 -0.6214,0.2273 -0.8951,0.6581 -0.2899,0.4592 -0.5013,1.0812 -0.5013,1.4872 0,0.2318 0.1189,0.3574 0.3141,0.3574 0.2819,0 0.8004,-0.2409 0.9922,-0.4343 0.1074,-0.1097 0.1617,-0.2612 0.2506,-0.5587 0.1271,-0.4546 0.2391,-0.8934 0.3061,-1.4023 -0.1744,-0.0701 -0.3303,-0.1074 -0.4666,-0.1074 z m 0.3592,2.8261 c -0.1398,0 -0.186,-0.0927 -0.2576,-0.4705 -0.5729,0.3258 -1.0048,0.4773 -1.4068,0.4773 -0.4724,0 -0.7438,-0.2432 -0.7438,-0.6593 0,-0.4083 0.201,-0.9771 0.5151,-1.4397 0.417,-0.6457 0.939,-1.0551 1.7348,-1.0551 0.3488,0 0.6676,0.061 1.0026,0.1447 l -0.0324,0.1267 c -0.2818,0.881 -0.4816,1.84 -0.4816,2.1657 0,0.2115 0.0439,0.3166 0.1432,0.3166 0.0566,0 0.2137,-0.0384 0.4158,-0.1063 l 0.022,0.2308 c -0.4008,0.1458 -0.7762,0.2691 -0.9113,0.2691 z" />
  <path
     style="clip-rule:evenodd;fill:#000000;fill-rule:evenodd"
     id="path1068"
     d="m 83.4647,43.79835 -0.6376,-0.017 -0.3268,1.5686 c -0.0924,0.4071 -0.097,0.518 -0.097,0.5768 0,0.1097 0.0577,0.1639 0.1524,0.1639 0.0566,0 0.1698,-0.0248 0.3569,-0.0769 l 0.082,-0.0294 0.0243,0.2194 c -0.4077,0.1776 -0.8258,0.2726 -1.0511,0.2726 -0.1686,0 -0.2691,-0.0713 -0.2691,-0.2183 0,-0.1357 0.0324,-0.3132 0.0947,-0.5541 0.0647,-0.2782 0.1248,-0.4965 0.1802,-0.7939 l 0.2437,-1.1298 -0.4112,0.0124 0.0509,-0.2431 c 0.5382,-0.0984 0.7207,-0.4942 0.8604,-0.9455 l 0.38,-0.078 -0.1975,0.8957 h 0.6468 z" />
  <path
     style="clip-rule:evenodd;fill:#000000;fill-rule:evenodd"
     id="path1070"
     d="m 85.7985,43.64095 c -0.3696,0 -0.7635,0.4987 -0.9668,1.2451 h 0.0786 c 0.7207,0 1.2716,-0.3788 1.2716,-0.8617 0.0012,-0.2183 -0.1686,-0.3834 -0.3834,-0.3834 z m -0.8062,1.5165 c -0.0555,0 -0.119,0 -0.2183,-0.0056 -0.0277,0.1413 -0.0347,0.2623 -0.0347,0.3687 0,0.3992 0.1467,0.5959 0.4204,0.5959 0.2461,0 0.5602,-0.1334 1.0234,-0.4116 l 0.0727,0.2578 c -0.5752,0.3563 -1.0071,0.5214 -1.4056,0.5214 -0.4874,0 -0.753,-0.2929 -0.753,-0.7939 0,-1.2531 0.8674,-2.3557 1.8791,-2.3557 0.4978,0 0.775,0.2228 0.775,0.5949 0.0012,0.709 -0.76,1.2281 -1.759,1.2281 z" />
  <path
     style="clip-rule:evenodd;fill:#000000;fill-rule:evenodd"
     id="path1072"
     d="m 89.8804,44.32025 -0.2587,-0.0193 c 0.0127,-0.095 0.0219,-0.2114 0.0219,-0.3064 0,-0.1357 -0.119,-0.2398 -0.3141,-0.2398 -0.1202,0 -0.2334,0.069 -0.3361,0.1843 -0.3003,0.3337 -0.4205,0.8527 -0.5798,1.6941 l -0.1548,0.7464 c -0.2945,0.0114 -0.3708,0.0227 -0.6768,0.0487 0.0785,-0.2748 0.1316,-0.5101 0.1928,-0.7702 l 0.1848,-0.6989 c 0.1074,-0.4795 0.1629,-0.7916 0.1629,-0.9522 0,-0.1832 -0.0508,-0.2635 -0.1421,-0.2635 -0.0392,0 -0.1085,0.0113 -0.194,0.0283 l -0.1941,0.0554 -0.0288,-0.2183 c 0.3973,-0.1583 0.8189,-0.2759 1.0129,-0.2759 0.0866,0 0.1247,0.0305 0.1455,0.1074 0.0277,0.0837 0.0439,0.1991 0.0508,0.3212 0.3535,-0.2748 0.6572,-0.4331 0.8721,-0.4331 0.1582,0 0.3361,0.0655 0.5174,0.1956 -0.1155,0.2816 -0.216,0.5327 -0.2818,0.7962 z" />
  <path
     style="clip-rule:evenodd;fill:#000000;fill-rule:evenodd"
     id="path1074"
     d="m 92.9865,46.47665 c -0.1582,0 -0.2483,-0.0905 -0.2483,-0.2296 0,-0.0927 0.0358,-0.2635 0.1271,-0.6412 l 0.0762,-0.3268 c 0.2241,-0.9308 0.2968,-1.2712 0.2968,-1.3933 0,-0.121 -0.0727,-0.1696 -0.1709,-0.1696 -0.134,0 -0.3546,0.0667 -0.5879,0.2069 -0.246,0.138 -0.4354,0.3031 -0.5278,0.4456 -0.0728,0.1097 -0.1225,0.2986 -0.2195,0.7 -0.127,0.57 -0.1998,0.9455 -0.2622,1.3074 -0.3072,0.0169 -0.3834,0.0282 -0.6895,0.0542 0.1617,-0.5609 0.2691,-1.0325 0.3869,-1.5629 0.1236,-0.5077 0.1652,-0.7679 0.1652,-0.8911 0,-0.1821 -0.052,-0.2601 -0.1698,-0.2601 -0.0704,0 -0.1998,0.0282 -0.3823,0.0825 l -0.0173,-0.2081 c 0.3754,-0.1492 0.7842,-0.2567 0.9679,-0.2567 0.1697,0 0.224,0.1029 0.224,0.4592 v 0.0565 c 0.596,-0.328 1.2001,-0.5146 1.6263,-0.5146 0.2575,0 0.3522,0.0611 0.3522,0.2172 0,0.1651 -0.0416,0.4037 -0.2102,1.0336 -0.0866,0.3438 -0.179,0.7136 -0.2102,0.8867 -0.0358,0.2194 -0.0635,0.3664 -0.0635,0.4501 0,0.1153 0.0566,0.1594 0.1709,0.1594 0.0728,0 0.2183,-0.0237 0.4031,-0.0961 l 0.0243,0.2205 c -0.4077,0.147 -0.8813,0.2703 -1.0615,0.2703 z" />
  <path
     style="clip-rule:evenodd;fill:#000000;fill-rule:evenodd"
     id="path1076"
     d="m 95.4196,46.46725 c -0.1479,0 -0.2553,-0.0814 -0.2553,-0.2194 0,-0.0656 0.022,-0.19 0.0612,-0.3551 0.0994,-0.4117 0.238,-0.959 0.3211,-1.244 0.1005,-0.3902 0.1536,-0.6774 0.1536,-0.7894 0,-0.095 -0.0531,-0.1323 -0.1247,-0.1323 -0.0716,0 -0.1559,0.0192 -0.3038,0.0678 l -0.0681,0.0125 -0.0185,-0.2115 c 0.4239,-0.1583 0.8559,-0.2612 1.0626,-0.2612 0.119,0 0.1628,0.0429 0.1628,0.1334 0,0.0871 -0.0392,0.3302 -0.1824,0.8799 l -0.1144,0.4342 c -0.1917,0.7396 -0.246,1.0054 -0.246,1.1343 0,0.0973 0.0647,0.1651 0.1883,0.1651 0.0693,0 0.2159,-0.0237 0.4285,-0.0972 l 0.0208,0.2081 c -0.4239,0.1606 -0.8698,0.2748 -1.0857,0.2748 z m 0.8524,-3.8994 c -0.2461,0 -0.4043,-0.1482 -0.4043,-0.3619 0,-0.2703 0.2067,-0.4625 0.4828,-0.4625 0.2368,0 0.3823,0.1357 0.3823,0.363 0,0.2669 -0.1894,0.4614 -0.4608,0.4614 z" />
  <path
     style="clip-rule:evenodd;fill:#000000;fill-rule:evenodd"
     id="path1078"
     d="m 99.3436,43.79835 -0.6514,-0.017 -0.3199,1.5686 c -0.0924,0.4071 -0.097,0.518 -0.097,0.5768 0,0.1097 0.0508,0.1639 0.1559,0.1639 0.0589,0 0.1698,-0.0248 0.3615,-0.0769 l 0.0705,-0.0294 0.03,0.2194 c -0.4031,0.1776 -0.827,0.2726 -1.0568,0.2726 -0.1571,0 -0.2715,-0.0713 -0.2715,-0.2183 0,-0.1357 0.0347,-0.3132 0.1098,-0.5541 0.0623,-0.2782 0.1132,-0.4965 0.1778,-0.7939 l 0.2368,-1.1298 -0.4112,0.0124 0.0578,-0.2431 c 0.529,-0.0984 0.7115,-0.4942 0.8593,-0.9455 l 0.3707,-0.078 -0.1928,0.8957 h 0.6548 z" />
  <path
     style="clip-rule:evenodd;fill:#000000;fill-rule:evenodd"
     id="path1080"
     d="m 101.6641,43.64095 c -0.365,0 -0.7649,0.4987 -0.9589,1.2451 h 0.0774 c 0.7175,0 1.2715,-0.3788 1.2715,-0.8617 10e-4,-0.2183 -0.172,-0.3834 -0.39,-0.3834 z m -0.803,1.5166 c -0.0497,0 -0.1097,0 -0.2194,-0.0057 -0.0162,0.1414 -0.0243,0.2624 -0.0243,0.3687 0,0.3992 0.134,0.596 0.4077,0.596 0.251,0 0.562,-0.1335 1.026,-0.4117 l 0.077,0.2579 c -0.574,0.3562 -1.009,0.5213 -1.3964,0.5213 -0.4931,0 -0.7542,-0.2929 -0.7542,-0.7939 0,-1.253 0.864,-2.3557 1.8726,-2.3557 0.487,0 0.779,0.2228 0.779,0.5949 0.001,0.7091 -0.771,1.2282 -1.768,1.2282 z m 0.874,-2.2913 -0.246,-0.2069 0.955,-1.0495 0.688,0.1674 z" />
  <path
     style="clip-rule:evenodd;fill:#000000;fill-rule:evenodd"
     id="path1082"
     d="m 65.1971,45.04635 c 0.5255,0 0.9482,-0.4082 0.9482,-0.9183 0,-0.5021 -0.4215,-0.9205 -0.9482,-0.9205 -0.5128,0 -0.9517,0.4184 -0.9517,0.9205 0,0.5112 0.4389,0.9183 0.9517,0.9183 z" />
  <path
     style="clip-rule:evenodd;fill:#000000;fill-rule:evenodd"
     id="path1084"
     d="m 32.7362,45.04635 c 0.5151,0 0.9448,-0.4082 0.9448,-0.9183 0,-0.5021 -0.4297,-0.9205 -0.9448,-0.9205 -0.5278,0 -0.9459,0.4184 -0.9459,0.9205 0.0011,0.5112 0.4181,0.9183 0.9459,0.9183 z" />
  <path
     style="clip-rule:evenodd;fill:#000000;fill-rule:evenodd"
     id="path1086"
     d="m 5.18042,50.47735 h 97.59568 v -0.8064 H 5.18042 Z" />
</svg>
