<svg width="116" height="71" viewBox="0 0 116 71" fill="none" xmlns="http://www.w3.org/2000/svg">
<path fill-rule="evenodd" clip-rule="evenodd" d="M34.0841 23.8757C33.1983 24.1234 32.2963 24.1653 31.4855 24.595C33.4154 24.5181 35.3464 24.8223 37.2047 25.4013C37.8699 25.6173 38.4578 25.9057 39.0595 26.262C39.3528 26.4893 39.503 26.7143 39.7998 26.8534C40.1763 27.0717 40.6914 27.0717 41.0644 26.9349H41.4317C42.5451 26.6386 43.7427 26.3457 44.4807 25.5518C44.4807 25.6173 44.5569 25.6173 44.6239 25.6173C44.4079 26.1998 44.4079 26.8534 43.9633 27.3691C43.9633 27.4415 43.8825 27.5829 44.028 27.653H44.185C44.1077 27.653 44.028 27.653 44.028 27.7242C44.028 27.8667 44.2509 27.7242 44.334 27.8667C43.9633 27.9493 43.5856 28.0262 43.365 28.3168C43.365 28.3881 43.514 28.3881 43.5879 28.3881C43.4482 28.5249 43.2207 28.4605 43.1421 28.6075C43.1421 28.6075 43.2207 28.6753 43.2934 28.6753C43.2207 28.6753 43.1421 28.6753 43.1421 28.7534V28.9671C42.9262 28.9671 42.8534 29.1141 42.6917 29.182C42.9943 29.4059 43.2207 29.182 43.514 29.182C42.6917 29.4805 42.0334 29.9114 41.2007 30.1319C41.0656 30.1319 41.2007 30.3412 41.0656 30.3412C41.292 30.4972 41.4329 30.2688 41.6592 30.2688C40.6175 30.858 39.5804 31.3703 38.4589 32.0251C38.4589 32.0251 38.3111 32.1698 38.3111 32.3123H38.0166C37.8722 32.3972 37.9427 32.6019 37.7995 32.7477C38.161 32.9694 38.6091 32.4684 38.8354 32.7477C38.9082 32.7477 38.6876 32.8292 38.5375 32.8292C38.4589 32.8292 38.4589 32.9694 38.3827 32.9694H38.1598C38.0154 33.113 37.8699 33.1786 37.8699 33.398C37.7209 33.398 37.5708 33.398 37.5003 33.5439C39.1357 33.3336 40.8427 33.4806 42.3972 32.6776C43.5879 32.0918 44.7024 31.2866 45.668 30.2688C45.668 30.2688 45.7373 30.3412 45.7373 30.4226C45.5224 31.1452 45.0755 31.6643 44.483 32.0929C44.0291 32.3123 43.7439 32.6788 43.3662 32.8292C43.1433 32.9705 42.9285 33.1142 42.6929 33.2634C39.9534 34.1976 36.6815 33.7757 34.3058 35.5852C34.3058 35.5083 34.2273 35.5083 34.1557 35.5083C34.0055 35.6678 33.7815 35.7345 33.7099 35.8849C33.7099 36.0195 33.9363 35.9561 34.0055 35.9561C34.456 35.6678 34.8983 35.4416 35.4169 35.2957C34.8221 35.5863 34.2481 36.1721 33.636 36.1721H29.9298C30.6609 35.7367 31.4116 35.221 32.2235 34.7879C32.0029 34.6511 31.7846 34.6511 31.5479 34.6511C31.1875 34.7178 30.7394 34.4961 30.3652 34.6511C29.2565 35.1487 27.7667 35.0118 27.173 36.1744H5.08396L5.06201 3.95135H49.2228C48.3358 4.39015 47.5262 4.67401 46.861 5.47469C46.2662 6.21431 45.668 6.92452 45.4508 7.79758C44.483 8.38 43.8836 9.26437 43.365 10.1329C42.6917 11.3645 41.7331 12.4592 41.8775 13.8446C42.0334 15.0049 42.3245 16.0962 42.5439 17.3368C42.6259 17.7722 42.6906 18.1409 42.8523 18.5684C42.9932 19.0015 42.8523 19.5172 43.0717 19.8825C43.2207 20.0996 43.1421 20.3869 43.447 20.535V20.8223C43.514 20.8958 43.514 20.9693 43.6665 20.9693V21.2656C44.2509 21.9984 44.9993 22.6317 45.3746 23.4483C45.5201 23.8837 44.6239 23.6643 44.2509 23.5161C43.514 23.152 43.0717 22.5752 42.47 22.0595C42.47 22.0595 42.3961 22.1364 42.3961 22.2099C42.6906 22.7166 43.8132 23.3748 43.2195 23.7287C42.925 23.8848 42.5439 23.5161 42.254 23.8113C42.1732 23.9515 42.254 24.0951 42.254 24.2433C41.8094 23.9515 41.3624 24.0951 40.912 23.9515C40.6163 23.8837 40.5413 23.2945 40.1763 23.2945C39.2039 23.0818 38.3099 22.8624 37.3456 22.7923C36.0186 22.6317 34.7482 22.4237 33.4142 22.6317C32.2212 22.7064 31.3365 23.5828 30.5881 24.4548V24.6843C31.1102 24.7432 31.3365 24.3066 31.7835 24.1653C32.518 24.0137 33.1936 23.7197 33.9363 23.5828C35.0484 23.3646 36.0879 23.0728 37.1192 23.1429C37.3467 23.1429 37.6447 23.0728 37.8722 23.1429C36.5314 23.0728 35.3476 23.5082 34.0841 23.8757Z" fill="#004493"/>
<path fill-rule="evenodd" clip-rule="evenodd" d="M70.6934 31.5931C70.8708 31.0683 71.0632 30.5017 70.7694 29.9804C70.3259 29.3313 71.2095 29.1073 71.5102 28.681C71.7279 28.3191 71.357 28.094 71.2844 27.731C71.2107 27.584 70.9134 27.6575 70.7694 27.4358C71.2844 27.2221 72.0977 26.7844 71.7279 26.1319C71.5102 25.7779 71.1461 25.1966 71.5839 24.8268C72.0989 24.5328 72.9134 24.6097 73.1357 24.0951C73.5044 23.2198 72.6887 22.4949 72.2429 21.7689C72.0263 21.3391 71.7279 21.0473 71.4353 20.5995C71.1461 20.0985 70.7694 19.6552 70.6231 19.0739C70.3927 18.4971 70.6934 17.9792 70.6934 17.4013C70.7694 16.3179 70.4699 15.2209 70.1796 14.1409C69.9561 13.624 69.8789 13.0258 69.6554 12.5248C69.5817 12.2375 69.5045 11.9514 69.2844 11.6585C69.2119 11.5115 69.2119 11.2921 69.2844 11.1473C69.5817 10.9279 69.88 10.7119 70.1807 10.4224C70.3939 10.0549 70.251 9.54823 69.88 9.32431C69.3582 9.11057 69.4308 9.84114 69.0633 9.98476H68.8409C68.7706 9.7631 68.9215 9.7009 69.0633 9.54823C69.0633 9.48038 69.0632 9.32431 68.9907 9.32431C68.6981 9.32431 68.3997 9.25985 68.3225 9.11057C67.5852 8.09049 66.5483 7.58949 65.4355 7.14618C65.7281 7.21969 66.0196 7.29207 66.3283 7.29207C66.8375 7.36557 67.4274 7.36557 67.8824 7.14618C68.2488 7.00481 68.3213 6.42126 68.4699 6.05485C68.6128 5.76647 68.3985 5.32089 68.2476 5.11619C67.8813 4.52812 66.7983 3.95135 66.7983 3.95135H101.672L101.676 36.1733H60.0969C60.5405 34.7166 61.3607 33.3279 62.6902 32.3994C62.9839 32.24 63.3607 32.1732 63.7305 32.0986C64.9885 32.0986 66.2488 32.4537 67.5011 32.6007C67.6509 32.6007 67.8064 32.6754 67.9527 32.7545C68.3997 32.8212 68.9215 32.8212 69.3582 32.6765C69.88 32.5317 70.4699 32.2411 70.6934 31.5931Z" fill="#E1001A"/>
<path fill-rule="evenodd" clip-rule="evenodd" d="M29.4114 27.2218C29.1815 27.2885 28.954 27.4434 29.0337 27.5848C29.2543 27.8845 29.7024 27.5124 30.072 27.5124C29.6262 27.6606 29.1065 27.5848 28.7357 27.958C29.0337 28.1763 29.3294 28.0236 29.6262 28.0236C29.6262 28.1763 29.781 28.1763 29.8468 28.2486C29.4784 28.39 29.1815 28.6773 29.1065 28.9023C28.9552 29.2631 28.5856 29.4112 28.3626 29.703V29.9122C27.6246 30.5749 26.8069 31.0103 26.2063 31.8065C26.2895 31.8065 26.2895 31.88 26.2895 31.9569C26.1312 32.1729 25.8402 32.2521 25.7686 32.4624C25.7686 32.5337 25.7686 32.6094 25.8413 32.6094C26.7272 32.3335 27.4005 31.6719 28.2194 31.3745C28.8062 31.2309 29.2555 30.8712 29.7821 30.7231C30.1459 30.6496 30.5952 30.4958 30.9718 30.4279C30.9718 30.4958 30.9718 30.5749 31.0318 30.5749H31.6393C31.5562 30.7231 31.2674 30.6484 31.3356 30.7231C31.5562 30.947 32.0032 30.8712 32.3011 30.7231C32.5287 30.5749 32.7504 30.5749 33.0438 30.5749C33.12 30.5749 33.12 30.4279 33.12 30.3612C33.3441 30.4279 33.4908 30.4279 33.7102 30.4279C35.5051 30.0626 37.2064 29.703 38.8349 28.9023C36.9003 27.4446 34.454 26.9391 32.1556 26.2797C32.3716 26.2797 32.5968 26.5048 32.822 26.2797C32.4524 26.0004 32.002 26.1271 31.637 25.9258C31.7063 25.9258 31.8611 25.9993 31.9327 25.8534C31.3344 25.548 30.7442 25.548 30.1448 25.4168C30.5178 25.3399 30.7442 25.0448 30.7442 24.6851C30.7442 24.6105 30.5941 24.6105 30.5178 24.6105C29.6274 25.0448 29.0348 25.8534 28.6676 26.8011C29.1827 27.0849 29.7821 26.8644 30.2996 26.9391C30.072 27.1517 29.7036 27.1517 29.4114 27.2218Z" fill="white"/>
<path fill-rule="evenodd" clip-rule="evenodd" d="M26.3617 24.3818C25.5971 25.1825 24.8071 25.9244 23.8288 26.4265C23.1635 27.7293 22.4174 28.9009 21.4507 30.128C21.4507 30.2015 21.5315 30.2795 21.5315 30.2795C23.3125 28.323 24.9503 26.6515 27.2475 25.265C27.4 25.1995 27.0258 25.4754 27.3284 25.4155C28.2893 25.1995 28.5839 24.2404 29.0343 23.5189C29.6257 22.5678 30.6698 22.2071 31.4182 21.412C31.4182 21.481 31.4182 21.5489 31.335 21.6314C31.4182 21.6959 31.4898 21.6959 31.5556 21.6959C31.8652 21.4799 32.2267 21.5489 32.4531 21.2673C31.8652 21.0445 31.1098 20.9755 30.5185 21.1892C28.9558 21.9074 27.6241 23.0756 26.3617 24.3818Z" fill="white"/>
<path fill-rule="evenodd" clip-rule="evenodd" d="M27.4731 25.7706C27.5447 25.6394 27.6244 25.627 27.6983 25.48C27.6983 25.4155 27.6983 25.3386 27.6244 25.3386C27.3287 25.4155 27.0989 25.7061 27.0261 25.999C27.0261 26.0612 27.0989 26.0612 27.182 26.0612C27.3287 25.999 27.4003 25.9244 27.4731 25.7706Z" fill="white"/>
<path fill-rule="evenodd" clip-rule="evenodd" d="M33.4194 31.2981C33.1191 31.4463 32.597 31.4463 32.5277 31.8036C32.455 31.954 32.7495 31.8771 32.8985 31.8771C33.4194 31.6679 34.0154 31.8771 34.4542 31.4463C34.3041 31.2981 34.08 31.3728 33.938 31.1443C33.7901 31.0855 33.5672 31.2314 33.4194 31.2981Z" fill="white"/>
<path fill-rule="evenodd" clip-rule="evenodd" d="M41.4547 35.1609C41.9063 35.067 42.3452 34.8035 42.7887 34.6542V34.8035C43.9021 34.3602 44.7233 33.417 45.8298 33.0585C45.9072 33.0585 46.0539 33.1954 46.2017 33.1275C46.8762 32.544 47.6177 31.8835 48.5786 32.0407C48.5786 32.1029 48.5786 32.1798 48.6537 32.1798C48.7323 32.1798 48.805 32.1798 48.805 32.1029C48.5013 32.3234 48.2137 32.544 47.9111 32.7611C47.8487 32.8346 47.9111 32.9025 47.9861 32.9025C48.3569 32.7611 48.5775 32.4671 48.9529 32.3234C48.8732 32.4003 48.8732 32.5428 48.8039 32.622C47.3948 33.6387 45.235 36.1029 45.235 36.1029H35.1323C36.6188 35.8869 38.1064 35.3848 39.5963 35.2321C40.1877 35.2321 40.7848 35.3057 41.4547 35.1609Z" fill="#2C4390"/>
<path fill-rule="evenodd" clip-rule="evenodd" d="M67.9647 17.1929C67.5119 17.0832 67.1446 17.1929 66.6942 17.1929C66.0982 17.332 65.5843 17.4066 65.0657 17.6215C65.5115 17.332 65.9619 17.047 66.4724 16.9C66.842 16.8219 67.2174 16.6082 67.5835 16.6082C68.0363 16.5234 68.4821 16.3899 68.8563 16.5234C69.2224 16.6715 69.8173 16.6715 69.8946 16.9C70.0483 17.332 69.6706 17.7753 69.2224 18.0569C69.1508 18.2039 69.4454 18.2842 69.4454 18.4256C69.3784 18.5737 69.1531 18.6404 69.0042 18.6404C68.8575 18.7151 68.7027 18.939 68.5572 19.0849C68.7027 19.0849 68.5572 19.3032 68.7027 19.3032C68.4059 19.6673 68.8575 20.3843 68.4059 20.5302C67.8908 20.6806 67.3017 20.6806 66.6965 20.5302C66.9933 20.4567 67.3664 20.6037 67.5847 20.321V20.0281C67.5847 19.9466 67.5108 19.9466 67.4461 19.9466C67.3675 20.0281 67.3029 20.0281 67.3029 20.0281C67.3029 19.8731 67.1469 19.7318 67.0753 19.7318C66.6307 19.8121 66.2507 19.5859 65.9643 19.3032C66.1802 19.2206 66.4089 19.1471 66.6307 19.2206C66.8455 19.2206 66.7693 18.8576 66.9945 18.7173H67.2186C67.669 18.1338 68.5583 18.0003 68.7039 17.4066C68.7015 17.2494 68.2557 17.2494 67.9647 17.1929Z" fill="#9DA0A1"/>
<path fill-rule="evenodd" clip-rule="evenodd" d="M7.03478 52.7927C6.84189 52.7927 6.66749 52.8266 6.45844 52.864C6.45844 53.4226 6.4492 54.4404 6.4492 55.223C6.55315 55.2355 6.74372 55.2524 6.8673 55.2524C7.66309 55.2524 8.20593 54.7718 8.20593 54.0231C8.20477 53.3016 7.70467 52.7927 7.03478 52.7927ZM9.52608 58.7277C9.16341 58.7277 8.96129 58.6723 8.76841 58.5502C8.43462 58.3364 8.09736 57.7698 7.91256 57.4407C7.57877 56.8866 7.20687 56.2861 6.86037 55.7794C6.80031 55.7953 6.7518 55.7953 6.71369 55.7953C6.62476 55.7953 6.5416 55.7794 6.44689 55.7794V56.2861C6.44689 56.5439 6.45613 56.7984 6.45613 57.054C6.46306 57.5697 6.47923 57.797 6.55199 57.996C6.65017 58.2335 6.81879 58.3568 7.14334 58.3873V58.6542L6.91928 58.6373C6.66518 58.6339 6.31753 58.6373 5.86362 58.6373C5.42011 58.6373 5.07015 58.6339 4.81143 58.6373L4.58043 58.6542V58.3862C4.82183 58.3658 4.94425 58.3183 5.05398 58.2052C5.16024 58.065 5.23647 57.8988 5.24686 57.685C5.27805 57.4012 5.28959 57.2236 5.28959 56.2861V54.6847C5.28959 53.5301 5.24686 53.2552 5.18218 52.9838C5.11057 52.7316 4.92116 52.6299 4.57812 52.588V52.3268C4.77447 52.3415 4.96966 52.329 5.15908 52.329C5.66496 52.329 5.82204 52.329 6.41686 52.3075C6.94469 52.2861 7.24498 52.2781 7.48637 52.2781C8.13547 52.2781 8.5351 52.372 8.86773 52.5948C9.22231 52.8549 9.47988 53.3446 9.47988 53.8354C9.47988 54.6225 8.9532 55.2524 8.05694 55.5747C8.43115 56.0316 8.7199 56.4942 9.05946 57.0008C9.36784 57.4894 9.67738 57.9146 9.92224 58.1453C10.0551 58.2844 10.1428 58.3364 10.3288 58.3862V58.6531C10.077 58.7028 9.82753 58.7277 9.52608 58.7277Z" fill="black"/>
<path fill-rule="evenodd" clip-rule="evenodd" d="M14.4941 58.5344C14.4248 58.6532 14.3428 58.6769 13.905 58.6769C13.6325 58.6769 13.3726 58.6611 13.0989 58.6532C12.7154 58.6362 12.3285 58.6317 11.9427 58.6317C11.5569 58.6317 11.1712 58.6317 10.79 58.6532V58.4304C11.1515 58.3987 11.3132 58.2065 11.341 57.8514C11.3652 57.6195 11.3652 57.3605 11.3652 56.9602V54.747C11.3652 54.3274 11.341 54.1352 11.2763 53.9656C11.2012 53.7631 11.0615 53.667 10.79 53.6432V53.425H14.5322C14.5322 53.6546 14.5299 53.8875 14.5299 54.1103C14.5299 54.3093 14.5195 54.4846 14.5322 54.6656H14.2481C14.1926 54.056 13.9247 53.9 12.9741 53.9C12.802 53.9 12.5652 53.9067 12.3712 53.9113C12.3574 54.2291 12.3504 54.3274 12.3504 54.7832V55.6913C12.4786 55.697 12.5652 55.697 12.7142 55.697C13.5424 55.697 13.7907 55.5828 13.8484 55.1553H14.1372C14.1175 55.2774 14.1175 55.5409 14.1175 55.9299C14.1175 56.3269 14.1233 56.5712 14.1372 56.6865H13.8484C13.823 56.2523 13.6082 56.138 12.7859 56.138C12.6357 56.138 12.4936 56.1482 12.3504 56.1482C12.3504 56.6243 12.3574 57.1366 12.3574 57.6308C12.3574 57.9577 12.4139 58.064 12.6068 58.1103C12.7246 58.1409 12.9129 58.1533 13.1612 58.1533C14.0275 58.1533 14.322 57.9622 14.516 57.3119L14.8221 57.3685C14.7124 57.9305 14.5807 58.3863 14.4941 58.5344ZM12.7154 52.9093L12.3343 52.6978L13.1254 51.5488L14.0425 51.7105L12.7154 52.9093Z" fill="black"/>
<path fill-rule="evenodd" clip-rule="evenodd" d="M17.8305 56.3162C17.7578 56.3162 17.7116 56.3162 17.6099 56.3049L17.4297 55.917C18.1839 55.8752 18.5974 55.5088 18.5974 54.9071C18.5974 54.2862 18.1608 53.8361 17.5499 53.8361C17.4482 53.8361 17.3766 53.8452 17.2496 53.8667C17.2496 54.3609 17.2276 54.8336 17.2276 55.3188V56.6928C17.2276 57.7219 17.2357 57.8938 17.3235 58.1065C17.3939 58.3078 17.5325 58.4005 17.8005 58.4299V58.6516L17.6145 58.6357C17.3997 58.6312 17.1191 58.6312 16.7321 58.6312C16.3614 58.6312 16.0622 58.6312 15.8578 58.6357L15.6672 58.6516V58.4299C16.0311 58.3982 16.1881 58.2048 16.2251 57.8497C16.2493 57.619 16.2493 57.4777 16.2493 56.6928V54.7465C16.2493 54.3269 16.2251 54.1347 16.1604 53.9651C16.0842 53.7626 15.9433 53.6654 15.6684 53.6427V53.4222C15.7608 53.4245 15.7019 53.4245 16.0357 53.4245C16.1743 53.4245 16.3625 53.4245 16.6213 53.4222C17.037 53.3985 17.439 53.3804 17.8467 53.3804C18.9855 53.3804 19.6635 53.9289 19.6635 54.8347C19.6635 55.7021 18.8839 56.3162 17.8305 56.3162Z" fill="black"/>
<path fill-rule="evenodd" clip-rule="evenodd" d="M25.1022 53.8148C25.019 53.9359 24.9763 54.0885 24.9578 54.4041C24.9428 54.7478 24.937 54.9978 24.937 55.4852C24.937 55.6605 24.9428 56.1988 24.9428 56.7484C24.9428 57.2958 24.8573 57.6317 24.6264 57.9585C24.2602 58.4742 23.6469 58.7467 22.8477 58.7467C22.3464 58.7467 21.9572 58.654 21.6015 58.4199C21.0378 58.0659 20.8207 57.6034 20.8207 56.7654C20.8207 55.9263 20.8403 55.5598 20.8403 55.2794C20.8403 54.8824 20.8669 54.4753 20.7964 54.067C20.7468 53.7911 20.592 53.6656 20.2651 53.6452V53.4258H20.4418C20.6451 53.4416 20.9396 53.4416 21.3277 53.4416C21.7089 53.4416 22.0057 53.4416 22.2147 53.4258H22.4019V53.6452C22.1582 53.6667 22.0288 53.7425 21.9456 53.8691C21.8798 53.9834 21.8486 54.1405 21.8417 54.4911C21.8301 54.9706 21.8163 55.4671 21.8163 55.9624C21.8163 57.3071 21.8486 57.5717 22.0958 57.8533C22.2898 58.0671 22.6201 58.2152 22.999 58.2152C23.536 58.2152 24.0558 57.9596 24.2175 57.4292C24.3261 57.0979 24.3411 56.8468 24.3411 55.9624V55.1923C24.3411 54.3011 24.3122 54.0139 24.2221 53.8872C24.1366 53.7493 24.0119 53.6667 23.8028 53.6452V53.4258C24.1286 53.4416 24.2371 53.4416 24.6344 53.4416C25.0491 53.4416 25.1623 53.4416 25.4718 53.4258V53.6452C25.3066 53.6644 25.19 53.7176 25.1022 53.8148Z" fill="black"/>
<path fill-rule="evenodd" clip-rule="evenodd" d="M28.3106 56.0198C28.1697 56.0198 28.0265 56.0311 27.8094 56.0413C27.807 56.255 27.807 56.2912 27.807 56.644V57.1134C27.807 57.5578 27.8209 57.7976 27.8867 57.9468C27.9445 58.1425 28.1374 58.233 28.4723 58.233C29.1584 58.233 29.5303 57.8632 29.5303 57.2016C29.5303 56.4699 29.0579 56.0198 28.3106 56.0198ZM28.2783 53.8269C28.1374 53.8269 27.9976 53.8462 27.8475 53.8462C27.8429 54.363 27.8209 55.2247 27.8094 55.5651C27.9064 55.5765 28.0196 55.5832 28.1697 55.5832C28.9551 55.5832 29.4136 55.2598 29.4136 54.6876C29.4113 54.1515 28.9863 53.8269 28.2783 53.8269ZM30.0258 58.2827C29.655 58.5587 29.2254 58.6616 28.4111 58.6616C27.9803 58.6616 27.5322 58.6333 27.1025 58.6333C26.9246 58.6333 26.6036 58.6333 26.3783 58.6378L26.2825 58.6548V58.432C26.6544 58.4003 26.7976 58.2126 26.8357 57.853C26.8565 57.6211 26.8669 57.4764 26.8669 56.6949V55.2134C26.8669 54.4919 26.8553 54.1719 26.7745 53.9683C26.696 53.7659 26.5493 53.6697 26.2825 53.646V53.4266C26.6509 53.4436 26.8669 53.4436 27.3832 53.4436C27.844 53.4436 28.5382 53.4153 28.9932 53.4153C29.7405 53.4153 30.4058 53.7681 30.4058 54.5756C30.4058 55.1897 30.0258 55.5866 29.2669 55.78C30.1101 55.9508 30.5617 56.4235 30.5617 57.1857C30.5617 57.6709 30.3896 58.0147 30.0258 58.2827Z" fill="black"/>
<path fill-rule="evenodd" clip-rule="evenodd" d="M35.0773 58.5461C35.008 58.6535 34.9122 58.6773 34.5091 58.6773C34.3162 58.6773 34.1014 58.6614 33.9062 58.6614C33.4072 58.6366 32.9603 58.632 32.4082 58.632C32.0051 58.632 31.7267 58.632 31.4854 58.6535V58.4307C31.6736 58.4194 31.7776 58.381 31.8769 58.2758C32.0166 58.1107 32.0605 57.9139 32.0605 57.3281V56.2232V55.375C32.0605 54.3278 32.0605 54.1819 31.9728 53.9659C31.8977 53.7635 31.7487 53.6674 31.4854 53.6436V53.4242L31.6736 53.4265C31.8965 53.4412 32.1841 53.4412 32.5941 53.4412C32.9845 53.4412 33.2883 53.4412 33.4939 53.4265L33.6937 53.4242V53.6436C33.2883 53.6436 33.1081 53.8562 33.0642 54.2453C33.0446 54.3742 33.0411 54.4907 33.0411 55.3773V56.6869C33.0411 57.7816 33.0446 57.9162 33.1508 58.0315C33.2363 58.1118 33.4072 58.1537 33.7514 58.1537C34.1915 58.1537 34.4317 58.1073 34.6327 58.001C34.8579 57.8698 35.0196 57.6448 35.1108 57.3066L35.4054 57.3801C35.321 57.8449 35.1755 58.4013 35.0773 58.5461Z" fill="black"/>
<path fill-rule="evenodd" clip-rule="evenodd" d="M37.864 58.6367C37.6676 58.6322 37.3685 58.6322 36.9977 58.6322C36.605 58.6322 36.3255 58.6322 36.1107 58.6367L35.9236 58.6537V58.4309C36.2955 58.3992 36.4445 58.2126 36.4734 57.8519C36.4976 57.62 36.5034 57.4753 36.5034 56.6938V55.3752C36.5034 55.1863 36.4976 54.959 36.4976 54.7475C36.4976 54.3279 36.4768 54.1357 36.4191 53.966C36.3463 53.7636 36.1939 53.6664 35.9236 53.6437V53.4255L36.1107 53.4357C36.3255 53.4402 36.605 53.4402 36.9977 53.4402C37.3685 53.4402 37.6676 53.4402 37.864 53.4357L38.0568 53.4255V53.6437C37.7138 53.6686 37.5394 53.8801 37.5071 54.2454C37.4747 54.467 37.4747 54.6774 37.4747 55.3774V56.6949C37.4747 57.7241 37.4909 57.896 37.5706 58.1086C37.6364 58.3099 37.7866 58.4026 38.0568 58.432V58.6548L37.864 58.6367Z" fill="black"/>
<path fill-rule="evenodd" clip-rule="evenodd" d="M41.5674 53.8634C40.5857 53.8634 39.8927 54.6641 39.8927 55.7837C39.8927 57.1419 40.722 58.2117 41.7684 58.2117C42.7559 58.2117 43.45 57.3986 43.45 56.2632C43.45 54.9163 42.6207 53.8634 41.5674 53.8634ZM45.3477 60.063C44.7251 60.063 44.0564 59.8708 43.4211 59.5202C43.0643 59.337 42.5549 58.9989 42.1899 58.698C41.9174 58.7399 41.8134 58.7455 41.5582 58.7455C39.9412 58.7455 38.8774 57.7051 38.8774 56.1501C38.8774 54.4843 40.0313 53.333 41.7349 53.333C43.3726 53.333 44.4756 54.3746 44.4756 55.9183C44.4756 57.0152 43.8993 58.0037 42.9765 58.4538C43.2698 58.5906 43.5574 58.7489 43.8439 58.9197C44.6524 59.3992 45.2137 59.6062 45.7427 59.6062C46.0707 59.6062 46.3444 59.5372 46.6643 59.3788L46.7637 59.6559C46.3768 59.9251 45.894 60.063 45.3477 60.063Z" fill="black"/>
<path fill-rule="evenodd" clip-rule="evenodd" d="M50.0172 53.8148C49.9317 53.9359 49.8844 54.0885 49.8717 54.4041C49.8567 54.7478 49.8451 54.9978 49.8451 55.4852C49.8451 55.6605 49.8578 56.1988 49.8578 56.7484C49.8578 57.2958 49.77 57.6317 49.5356 57.9585C49.166 58.4742 48.5619 58.7467 47.7581 58.7467C47.2476 58.7467 46.878 58.654 46.5118 58.4199C45.9586 58.0659 45.7391 57.6034 45.7391 56.7654C45.7391 55.9263 45.7553 55.5598 45.7553 55.2794C45.7553 54.8824 45.7738 54.4753 45.7057 54.067C45.6537 53.7911 45.5105 53.6656 45.1709 53.6452V53.4258H45.3511C45.559 53.4416 45.8685 53.4416 46.2393 53.4416C46.632 53.4416 46.9207 53.4416 47.1344 53.4258H47.3192V53.6452C47.0662 53.6667 46.9484 53.7425 46.8676 53.8691C46.7913 53.9834 46.7682 54.1405 46.7636 54.4911C46.7336 54.9706 46.7267 55.4671 46.7267 55.9624C46.7267 57.3071 46.7682 57.5717 47.0119 57.8533C47.2118 58.0671 47.5213 58.2152 47.914 58.2152C48.4511 58.2152 48.9673 57.9596 49.1394 57.4292C49.2364 57.0979 49.2549 56.8468 49.2549 55.9624V55.1923C49.2549 54.3011 49.2295 54.0139 49.1394 53.8872C49.0528 53.7493 48.9304 53.6667 48.719 53.6452V53.4258C49.0447 53.4416 49.1591 53.4416 49.5575 53.4416C49.9583 53.4416 50.0726 53.4416 50.3903 53.4258V53.6452C50.2182 53.6644 50.1038 53.7176 50.0172 53.8148Z" fill="black"/>
<path fill-rule="evenodd" clip-rule="evenodd" d="M54.8954 58.5345C54.8249 58.6532 54.7395 58.677 54.2948 58.677C54.0315 58.677 53.7693 58.6611 53.4932 58.6532C53.1202 58.6363 52.7263 58.6317 52.344 58.6317C51.9629 58.6317 51.5771 58.6317 51.1948 58.6532V58.4304C51.5471 58.3988 51.7157 58.2065 51.7492 57.8514C51.7723 57.6196 51.7723 57.3606 51.7723 56.9602V54.7471C51.7723 54.3275 51.7492 54.1352 51.6788 53.9656C51.6129 53.7632 51.4582 53.667 51.196 53.6433V53.425H54.9324V54.1103C54.9324 54.3094 54.9254 54.4847 54.9324 54.6656H54.6471C54.5963 54.0561 54.3306 53.9 53.3708 53.9C53.1999 53.9 52.9689 53.9068 52.7818 53.9113C52.7702 54.2291 52.7552 54.3275 52.7552 54.7832V55.6914C52.873 55.697 52.97 55.697 53.1213 55.697C53.9518 55.697 54.1989 55.5828 54.2532 55.1553H54.5362C54.5177 55.2774 54.5177 55.541 54.5177 55.93C54.5177 56.3269 54.5304 56.5712 54.5362 56.6866H54.2532C54.2186 56.2523 54.0118 56.1381 53.1872 56.1381C53.0393 56.1381 52.8996 56.1483 52.7564 56.1483C52.7564 56.6244 52.7725 57.1367 52.7725 57.6309C52.7725 57.9577 52.821 58.064 53.0185 58.1104C53.1329 58.1409 53.3142 58.1534 53.5672 58.1534C54.4322 58.1534 54.7291 57.9622 54.915 57.312L55.2326 57.3685C55.1114 57.9306 54.9739 58.3863 54.8954 58.5345Z" fill="black"/>
<path fill-rule="evenodd" clip-rule="evenodd" d="M62.3025 53.8452C62.2932 53.1678 61.8855 52.9054 60.7906 52.9054C60.5642 52.9054 60.3598 52.9099 60.1114 52.9382C60.086 53.5828 60.086 54.0318 60.086 55.0734C60.3182 55.0734 60.4395 55.0824 60.6012 55.0824C61.5078 55.0824 61.7804 54.9433 61.8266 54.4389H62.1777C62.1777 54.6832 62.1535 54.9637 62.1535 55.2215C62.1535 55.5811 62.1777 55.9464 62.1777 56.3015H61.8266C61.7677 55.718 61.5367 55.6106 60.5145 55.6106C60.3401 55.6106 60.2789 55.6105 60.086 55.6173V56.6827C60.086 56.8862 60.086 57.1237 60.0964 57.3669C60.123 57.8882 60.1611 58.3485 60.7917 58.3869V58.6527L60.555 58.6414C60.317 58.6323 59.9625 58.6323 59.5085 58.6323C59.0431 58.6323 58.6908 58.6323 58.4356 58.6414L58.2011 58.6527V58.3869C58.6377 58.3485 58.8363 58.1065 58.8733 57.6846C58.9091 57.3985 58.9091 57.2221 58.9091 56.2778V53.9097C58.9091 53.4098 58.8733 53.1836 58.7971 52.9834C58.7116 52.7403 58.5337 52.6283 58.2 52.5797V52.3275H62.6663C62.6386 52.4972 62.6386 52.8138 62.6386 53.2108C62.6386 53.584 62.6386 53.6371 62.6663 53.8463H62.3025V53.8452Z" fill="black"/>
<path fill-rule="evenodd" clip-rule="evenodd" d="M65.6017 53.8053C65.432 53.8053 65.2945 53.8268 65.112 53.8686V55.8229C65.1975 55.8398 65.3603 55.8443 65.4551 55.8443C66.1122 55.8443 66.5581 55.4542 66.5581 54.8288C66.5581 54.2509 66.1538 53.8053 65.6017 53.8053ZM67.6518 58.7214C67.3585 58.7214 67.1979 58.6739 67.027 58.5585C66.7567 58.3979 66.4841 57.9264 66.3213 57.6651C66.0487 57.18 65.7415 56.6925 65.4516 56.2843C65.4123 56.2899 65.3742 56.2899 65.3338 56.2899C65.2599 56.2899 65.1986 56.2843 65.112 56.2843V56.6925V57.3247C65.1236 57.7579 65.1363 57.9309 65.1975 58.1005C65.2807 58.3075 65.4192 58.4002 65.6918 58.4296V58.6524L65.5036 58.64C65.2945 58.6354 65.0069 58.64 64.635 58.64C64.27 58.64 63.9778 58.6354 63.7711 58.64L63.584 58.6524V58.4296C63.7803 58.4183 63.8704 58.3799 63.964 58.2747C64.0518 58.1729 64.1118 58.0293 64.1349 57.8506C64.1592 57.6187 64.1661 57.474 64.1661 56.6925V55.3739C64.1661 54.4318 64.1349 54.1853 64.0679 53.9693C64.0148 53.7623 63.845 53.6651 63.584 53.6425V53.4231C63.7364 53.44 63.8947 53.4253 64.0529 53.4253C64.471 53.4253 64.5981 53.4253 65.097 53.4004C65.5255 53.3937 65.7761 53.3812 65.9679 53.3812C66.5084 53.3812 66.8353 53.4604 67.1171 53.6538C67.4208 53.863 67.6091 54.2713 67.6091 54.675C67.6091 55.3151 67.1875 55.8432 66.4507 56.1135C66.7498 56.4946 66.9912 56.8633 67.2707 57.2942C67.5294 57.6945 67.7823 58.0372 67.9856 58.2328C68.0953 58.3493 68.16 58.3991 68.3183 58.4307V58.6535C68.1104 58.6988 67.9082 58.7214 67.6518 58.7214Z" fill="black"/>
<path fill-rule="evenodd" clip-rule="evenodd" d="M70.842 54.802C70.6306 55.3302 70.3384 56.0313 70.2229 56.4125H71.4056L70.842 54.802ZM73.4291 58.6415C73.2316 58.637 72.944 58.637 72.5721 58.637C72.2002 58.637 71.9115 58.637 71.714 58.6415L71.5269 58.6528V58.43C71.781 58.4187 71.9323 58.283 71.9323 58.0659C71.9323 57.9957 71.9115 57.8702 71.8214 57.6463C71.7348 57.3455 71.6701 57.1555 71.5754 56.8886H70.0369L69.8764 57.3375C69.7528 57.6972 69.6939 57.9595 69.6939 58.0907C69.6939 58.3158 69.7932 58.4198 70.0577 58.4311V58.6539C69.7493 58.6426 69.6373 58.6381 69.2573 58.6381C68.875 58.6381 68.7653 58.6426 68.4592 58.6539V58.4311C68.5828 58.4198 68.6198 58.4006 68.7052 58.3271C68.8635 58.1914 69.0113 57.9154 69.2573 57.3138L70.0161 55.4252C70.2229 54.9095 70.537 54.0884 70.7542 53.4235H71.297C71.364 53.6689 71.5338 54.0409 71.6447 54.3384L72.78 57.1645C72.9671 57.6463 73.1057 57.9268 73.2085 58.1088C73.3102 58.2864 73.4291 58.3893 73.6255 58.4311V58.6539L73.4291 58.6415Z" fill="black"/>
<path fill-rule="evenodd" clip-rule="evenodd" d="M79.1263 53.8788C79.042 54.019 79.0246 54.1502 79.0096 54.5619C78.9831 55.2642 78.9761 56.3679 78.9761 56.8859V58.0892C78.9761 58.2633 79.0039 58.5461 79.0039 58.6524H78.4529C77.9297 57.9953 76.8544 56.6846 76.8544 56.6846C76.7251 56.5319 75.7329 55.3252 75.219 54.7179C75.219 54.8876 75.2086 54.7926 75.2086 55.2958V55.8059C75.2086 56.3894 75.219 56.9684 75.249 57.5576C75.2652 57.8879 75.2929 58.053 75.3645 58.2057C75.4546 58.3572 75.5689 58.4239 75.8011 58.4296V58.6524C75.5227 58.6309 75.2421 58.6309 74.9649 58.6309C74.6692 58.6309 74.3862 58.6309 74.0986 58.6524V58.4296C74.6288 58.4183 74.6461 57.9953 74.6588 57.5757C74.6704 57.2421 74.6796 56.9696 74.6796 56.4697V54.8208C74.6796 54.1604 74.6473 54.0122 74.5248 53.8358C74.4428 53.7159 74.3366 53.6662 74.0998 53.6424V53.423C74.3677 53.44 74.4648 53.44 74.7986 53.44C75.122 53.44 75.2201 53.44 75.4881 53.423C75.5782 53.5938 75.7399 53.7521 76.2908 54.4115C77.0716 55.3377 77.7796 56.1384 78.4368 56.956V55.2348C78.4368 54.4669 78.4183 54.2644 78.3871 54.0507C78.3328 53.8053 78.1746 53.6741 77.8824 53.6424V53.423C78.2081 53.44 78.3201 53.44 78.729 53.44C79.1355 53.44 79.2522 53.44 79.5686 53.423V53.6424C79.3584 53.6537 79.2464 53.6854 79.1263 53.8788Z" fill="black"/>
<path fill-rule="evenodd" clip-rule="evenodd" d="M84.7151 58.4643C84.1954 58.6623 83.7357 58.7459 83.1062 58.7459L83.0289 59.0513H83.1767C83.4839 59.0513 83.6872 59.265 83.6872 59.5206C83.6872 59.9594 83.3384 60.2455 82.8025 60.2455C82.6442 60.2455 82.4929 60.2161 82.3174 60.155L82.4306 59.8497C82.5403 59.8814 82.6304 59.9119 82.717 59.9119C82.9434 59.9119 83.0947 59.8022 83.0947 59.5941C83.0947 59.4414 83.0208 59.3465 82.8995 59.3465C82.8233 59.3465 82.7748 59.3781 82.717 59.4075L82.5438 59.3555L82.6997 58.729C82.0009 58.6622 81.4846 58.4406 81.0515 58.0041C80.563 57.5019 80.3008 56.8347 80.3008 56.0408C80.3008 54.3512 81.4049 53.3334 83.2379 53.3334C83.79 53.3334 84.3259 53.4001 84.7891 53.5607C84.7717 53.7383 84.7717 53.9102 84.7717 54.0855C84.7717 54.228 84.7833 54.5073 84.7891 54.6848H84.4795C84.3478 54.1341 83.8916 53.8265 83.1663 53.8265C82.0425 53.8265 81.3507 54.5627 81.3507 55.7796C81.3507 57.1977 82.1649 58.2235 83.2679 58.2235C83.9459 58.2235 84.3964 57.8966 84.5858 57.2712L84.8849 57.3278C84.8225 57.6015 84.7394 58.0448 84.7151 58.4643Z" fill="black"/>
<path fill-rule="evenodd" clip-rule="evenodd" d="M87.675 54.802C87.4636 55.3302 87.1737 56.0313 87.0524 56.4125H88.2375L87.675 54.802ZM90.2621 58.6415C90.0646 58.637 89.7805 58.637 89.4086 58.637C89.0332 58.637 88.7422 58.637 88.5424 58.6415L88.3622 58.6528V58.43C88.614 58.4187 88.763 58.283 88.763 58.0659C88.763 57.9957 88.7422 57.8702 88.659 57.6463C88.5678 57.3455 88.4985 57.1555 88.3991 56.8886H86.8676L86.7094 57.3375C86.587 57.6972 86.5246 57.9595 86.5246 58.0907C86.5246 58.3158 86.632 58.4198 86.8838 58.4311V58.6539C86.5812 58.6426 86.4634 58.6381 86.0938 58.6381C85.7161 58.6381 85.5995 58.6426 85.2969 58.6539V58.4311C85.4135 58.4198 85.4551 58.4006 85.536 58.3271C85.6919 58.1914 85.8524 57.9154 86.0938 57.3138L86.8399 55.4252C87.0524 54.9095 87.362 54.0884 87.5849 53.4235H88.1312C88.1959 53.6689 88.3737 54.0409 88.48 54.3384L89.6038 57.1645C89.8001 57.6463 89.9399 57.9268 90.0415 58.1088C90.1489 58.2864 90.2621 58.3893 90.4573 58.4311V58.6539L90.2621 58.6415Z" fill="black"/>
<path fill-rule="evenodd" clip-rule="evenodd" d="M92.8701 58.6367C92.6864 58.6322 92.385 58.6322 92.0085 58.6322C91.6146 58.6322 91.3316 58.6322 91.1145 58.6367L90.9343 58.6537V58.4309C91.3097 58.3992 91.4541 58.2126 91.4829 57.8519C91.5141 57.62 91.5187 57.4753 91.5187 56.6938V55.3752C91.5187 55.1863 91.5141 54.959 91.5141 54.7475C91.5141 54.3279 91.4933 54.1357 91.4333 53.966C91.3536 53.7636 91.2092 53.6664 90.9343 53.6437V53.4255L91.1145 53.4357C91.3316 53.4402 91.6146 53.4402 92.0085 53.4402C92.3838 53.4402 92.6853 53.4402 92.8701 53.4357L93.0745 53.4255V53.6437C92.7303 53.6686 92.5536 53.8801 92.5236 54.2454C92.4924 54.467 92.4924 54.6774 92.4924 55.3774V56.6949C92.4924 57.7241 92.5039 57.896 92.5871 58.1086C92.6541 58.3099 92.7962 58.4026 93.0745 58.432V58.6548L92.8701 58.6367Z" fill="black"/>
<path fill-rule="evenodd" clip-rule="evenodd" d="M95.3683 58.7459C94.9052 58.7459 94.5714 58.6815 94.0204 58.4734C93.9985 58.185 93.9396 57.7225 93.8818 57.3447L94.181 57.3018C94.3692 57.9306 94.7966 58.2642 95.418 58.2642C95.992 58.2642 96.3708 57.9803 96.3708 57.5359C96.3708 57.1808 96.1248 56.9399 95.7587 56.7182L94.9202 56.1923C94.3404 55.8384 94.0089 55.4663 94.0089 54.7719C94.0089 53.8876 94.6903 53.3334 95.7414 53.3334C96.2588 53.3334 96.6885 53.425 97.0546 53.6105V54.1069V54.6848H96.7612C96.6423 54.1239 96.2877 53.805 95.7287 53.805C95.2228 53.805 94.8636 54.1103 94.8636 54.5525C94.8636 54.9155 95.1362 55.1655 95.5612 55.4471L96.2426 55.8768C96.8871 56.2806 97.2556 56.6843 97.2556 57.3063C97.2556 58.1692 96.4886 58.7459 95.3683 58.7459Z" fill="black"/>
<path fill-rule="evenodd" clip-rule="evenodd" d="M101.804 58.5345C101.738 58.6532 101.653 58.677 101.209 58.677C100.938 58.677 100.677 58.6611 100.4 58.6532C100.02 58.6363 99.6339 58.6317 99.2516 58.6317C98.867 58.6317 98.4859 58.6317 98.1128 58.6532V58.4304C98.4558 58.3988 98.6187 58.2065 98.6545 57.8514C98.6787 57.6196 98.6787 57.3606 98.6787 56.9602V54.7471C98.6787 54.3275 98.6545 54.1352 98.5933 53.9656C98.5124 53.7632 98.3796 53.667 98.1139 53.6433V53.425H101.853C101.853 53.6546 101.841 53.8876 101.841 54.1103C101.841 54.3094 101.825 54.4847 101.853 54.6656H101.56C101.502 54.0561 101.231 53.9 100.283 53.9C100.11 53.9 99.8742 53.9068 99.6836 53.9113C99.6663 54.2291 99.6593 54.3275 99.6593 54.7832V55.6914C99.7806 55.697 99.8753 55.697 100.021 55.697C100.855 55.697 101.103 55.5828 101.16 55.1553H101.444C101.429 55.2774 101.429 55.541 101.429 55.93C101.429 56.3269 101.439 56.5712 101.444 56.6866H101.16C101.139 56.2523 100.916 56.1381 100.091 56.1381C99.9515 56.1381 99.8072 56.1483 99.6605 56.1483C99.6605 56.6244 99.6697 57.1367 99.6697 57.6309C99.6697 57.9577 99.7275 58.064 99.9273 58.1104C100.044 58.1409 100.226 58.1534 100.47 58.1534C101.338 58.1534 101.639 57.9622 101.824 57.312L102.134 57.3685C102.021 57.9306 101.89 58.3863 101.804 58.5345Z" fill="black"/>
<path fill-rule="evenodd" clip-rule="evenodd" d="M7.32905 45.2407C7.25513 45.3255 7.13848 45.3651 6.86128 45.3651C6.48014 45.3651 6.10477 45.3368 5.72709 45.3255C5.39561 45.3255 5.14729 45.3119 4.97519 45.3119C4.74535 45.3119 4.17363 45.3255 4.00501 45.3255L3.8999 45.3368L3.92878 45.1751C4.16324 45.1491 4.30761 45.0801 4.41734 44.9399C4.53976 44.7883 4.61484 44.5689 4.72225 44.146C4.82389 43.7264 4.87471 43.481 5.04103 42.6961L5.15999 42.082C5.28704 41.477 5.33208 41.123 5.33208 40.933C5.33208 40.5994 5.21196 40.4513 4.87471 40.4151L4.90589 40.2534C4.95325 40.2658 4.99252 40.2658 5.01331 40.2658H5.87377H6.75156C6.77581 40.2658 6.82086 40.2658 6.87283 40.2534L6.8428 40.4151C6.60719 40.4343 6.47436 40.4875 6.35193 40.6458C6.16021 40.898 6.05279 41.2158 5.76289 42.6973L5.6601 43.2107C5.53998 43.8282 5.49263 44.0363 5.45451 44.3235C5.43834 44.4174 5.42795 44.5146 5.42795 44.5542C5.42795 44.8607 5.57925 44.9512 6.08513 44.9512C6.96061 44.9512 7.2944 44.7713 7.57737 44.1471L7.78758 44.2296C7.5947 44.7227 7.42491 45.1118 7.32905 45.2407Z" fill="black"/>
<path fill-rule="evenodd" clip-rule="evenodd" d="M8.79605 45.4186C8.64128 45.4186 8.53271 45.3372 8.53271 45.1992C8.53271 45.1336 8.55697 45.0092 8.5997 44.8441C8.69788 44.4324 8.83763 43.8851 8.92079 43.6001C9.0282 43.2099 9.07094 42.9227 9.07094 42.8107C9.07094 42.7157 9.0282 42.6784 8.94042 42.6784C8.87228 42.6784 8.79721 42.6976 8.64244 42.7462L8.58469 42.7587L8.55812 42.5472C8.99009 42.3889 9.41512 42.286 9.6184 42.286C9.74083 42.286 9.79049 42.3289 9.79049 42.4194C9.79049 42.5065 9.74776 42.7496 9.60454 43.2993L9.48904 43.7335C9.29154 44.4731 9.24534 44.7389 9.24534 44.8678C9.24534 44.9651 9.30886 45.0329 9.42436 45.0329C9.49944 45.0329 9.63457 45.0092 9.85402 44.9357L9.86672 45.1438C9.46017 45.3044 9.00857 45.4186 8.79605 45.4186ZM9.64843 41.5192C9.40704 41.5192 9.24303 41.371 9.24303 41.1573C9.24303 40.887 9.44631 40.6948 9.73043 40.6948C9.9649 40.6948 10.1058 40.8305 10.1058 41.0578C10.107 41.3247 9.91061 41.5192 9.64843 41.5192Z" fill="black"/>
<path fill-rule="evenodd" clip-rule="evenodd" d="M13.0757 42.6157C12.9395 42.6157 12.7639 42.6666 12.5514 42.7808C12.3285 42.8927 12.1518 43.0126 12.0674 43.1359C11.9693 43.2772 11.8896 43.5046 11.7729 44.0033C11.654 44.4907 11.587 44.7893 11.587 44.899C11.587 45.0279 11.7729 45.1138 12.0801 45.1138C12.4024 45.1138 12.675 44.9668 12.8748 44.6954C13.1855 44.2476 13.4211 43.5634 13.4211 43.0658C13.4199 42.7762 13.2998 42.6157 13.0757 42.6157ZM13.0804 45.0618C12.7801 45.331 12.4186 45.4271 11.8676 45.4271C11.252 45.4271 10.8928 45.331 10.8928 45.1749C10.8928 45.1104 10.8974 45.0302 10.976 44.7225L11.3779 42.9855C11.5119 42.4279 11.6135 41.9891 11.7591 41.3649C11.8376 41.0007 11.8676 40.7926 11.8676 40.692C11.8676 40.6083 11.8191 40.5529 11.7337 40.5529C11.6794 40.5529 11.5084 40.597 11.3952 40.6287L11.3779 40.4081L11.4784 40.3697C11.8988 40.2521 12.2488 40.165 12.4151 40.165C12.5121 40.165 12.5768 40.2102 12.5768 40.2871C12.5768 40.3685 12.5387 40.5642 12.4047 41.133L12.1679 42.1373C12.094 42.4675 12.0651 42.5919 12.0432 42.6937C12.5387 42.4166 12.966 42.2832 13.3552 42.2832C13.8323 42.2832 14.0656 42.5173 14.0656 43.0047C14.0656 43.7126 13.6498 44.5857 13.0804 45.0618Z" fill="black"/>
<path fill-rule="evenodd" clip-rule="evenodd" d="M16.569 42.5923C16.1913 42.5923 15.794 43.091 15.6023 43.8374H15.6831C16.4015 43.8374 16.9502 43.4586 16.9502 42.9757C16.9502 42.7574 16.7781 42.5923 16.569 42.5923ZM15.7617 44.1088C15.712 44.1088 15.6381 44.1088 15.533 44.1032C15.5134 44.2445 15.5087 44.3655 15.5087 44.4719C15.5087 44.8711 15.6416 45.0678 15.9199 45.0678C16.1694 45.0678 16.4812 44.9344 16.9328 44.6562L17.0229 44.914C16.4454 45.2703 16.0112 45.4354 15.6115 45.4354C15.1345 45.4354 14.8643 45.1425 14.8643 44.6415C14.8643 43.3884 15.7374 42.2858 16.7399 42.2858C17.2343 42.2858 17.53 42.5086 17.53 42.8807C17.53 43.5897 16.7619 44.1088 15.7617 44.1088Z" fill="black"/>
<path fill-rule="evenodd" clip-rule="evenodd" d="M20.6481 43.2716L20.394 43.2523C20.4032 43.1573 20.4136 43.0409 20.4136 42.9459C20.4136 42.8102 20.2901 42.7061 20.0926 42.7061C19.9782 42.7061 19.8604 42.7751 19.7576 42.8904C19.4585 43.2241 19.3407 43.7431 19.1732 44.5845L19.0288 45.3309C18.7216 45.3423 18.6534 45.3536 18.3497 45.3796C18.4271 45.1048 18.4848 44.8695 18.5472 44.6094L18.7181 43.9105C18.8313 43.431 18.8856 43.1189 18.8856 42.9583C18.8856 42.7751 18.8359 42.6948 18.7493 42.6948C18.7008 42.6948 18.6327 42.7061 18.553 42.7231L18.3508 42.7785L18.3381 42.5602C18.7181 42.4019 19.1478 42.2843 19.343 42.2843C19.4307 42.2843 19.4712 42.3148 19.4897 42.3917C19.5081 42.4754 19.5231 42.5908 19.5347 42.7129C19.8847 42.4381 20.1953 42.2798 20.4148 42.2798C20.5661 42.2798 20.752 42.3453 20.9334 42.4754C20.7982 42.757 20.7035 43.0081 20.6481 43.2716Z" fill="black"/>
<path fill-rule="evenodd" clip-rule="evenodd" d="M23.2862 42.7497L22.6371 42.7327L22.3218 44.3013C22.2282 44.7084 22.2224 44.8193 22.2224 44.8781C22.2224 44.9878 22.2721 45.042 22.3784 45.042C22.4338 45.042 22.5516 45.0172 22.7295 44.9651L22.808 44.9357L22.8357 45.1551C22.4315 45.3327 22.0099 45.4277 21.7824 45.4277C21.6218 45.4277 21.519 45.3564 21.519 45.2094C21.519 45.0737 21.5456 44.8962 21.6161 44.6553C21.6738 44.3771 21.7339 44.1588 21.7962 43.8614L22.0388 42.7316L21.6207 42.744L21.6738 42.5009C22.2097 42.4025 22.3911 42.0067 22.5389 41.5554L22.9131 41.4774L22.7191 42.3731H23.3647L23.2862 42.7497Z" fill="black"/>
<path fill-rule="evenodd" clip-rule="evenodd" d="M25.6199 42.5923C25.2434 42.5923 24.8518 43.091 24.6543 43.8374H24.7282C25.4478 43.8374 25.9953 43.4586 25.9953 42.9757C25.9953 42.7574 25.8243 42.5923 25.6199 42.5923ZM24.8079 44.1089C24.7652 44.1089 24.6843 44.1089 24.5931 44.1032C24.5619 44.2446 24.5561 44.3656 24.5561 44.4719C24.5561 44.8711 24.6947 45.0679 24.9754 45.0679C25.2214 45.0679 25.5333 44.9344 25.9953 44.6562L26.0749 44.9141C25.5044 45.2703 25.0643 45.4354 24.6647 45.4354C24.1842 45.4354 23.9209 45.1425 23.9209 44.6415C23.9209 43.3885 24.7894 42.2858 25.7943 42.2858C26.2944 42.2858 26.5739 42.5086 26.5739 42.8807C26.5762 43.5898 25.8162 44.1089 24.8079 44.1089ZM25.6811 41.8176L25.4316 41.6107L26.3764 40.5612L27.0809 40.7286L25.6811 41.8176Z" fill="black"/>
<path fill-rule="evenodd" clip-rule="evenodd" d="M40.5423 41.3665H40.3217C40.3333 41.2828 40.3356 41.2523 40.3356 41.1957C40.3356 40.7716 40.0607 40.6314 39.273 40.6314C39.0201 40.6314 38.7752 40.6314 38.5119 40.654C38.3536 41.2885 38.2474 41.8392 38.1122 42.5189H38.3964C38.8976 42.5189 39.1067 42.511 39.2811 42.4748C39.5791 42.4216 39.735 42.2554 39.8251 41.9557H40.0411C39.9336 42.4035 39.7985 43.0414 39.735 43.4417H39.5329C39.5467 43.3908 39.549 43.3444 39.549 43.3139C39.549 42.9803 39.34 42.874 38.7047 42.874C38.3201 42.874 38.1804 42.8763 38.0395 42.8763C37.9956 43.0753 38.0395 42.9057 37.8651 43.7798C37.7715 44.2107 37.7438 44.4821 37.7438 44.6133C37.7438 44.8802 37.8847 44.9537 38.4021 44.9537C39.3873 44.9537 39.6899 44.7999 39.9926 44.1463L40.1912 44.2186C40.018 44.7276 39.8262 45.1188 39.7211 45.2557C39.6449 45.3405 39.5467 45.3699 39.2187 45.3699C38.9461 45.3699 38.6585 45.3586 38.3894 45.3473C38.0291 45.3405 37.6699 45.3292 37.3049 45.3292C36.9342 45.3292 36.5796 45.3405 36.2146 45.3405L36.2504 45.1799C36.4768 45.1528 36.6188 45.0838 36.7263 44.9436C36.8533 44.7965 36.9342 44.5715 37.0485 44.1497C37.1432 43.7256 37.1802 43.5582 37.3523 42.6998L37.477 42.0891C37.6052 41.4875 37.6468 41.1279 37.6468 40.9367C37.6468 40.6031 37.5244 40.455 37.1952 40.4188L37.2275 40.2571H40.7687C40.6786 40.5986 40.6024 41.0114 40.5423 41.3665ZM39.0674 39.738L38.8168 39.5355L39.7696 38.4815L40.4834 38.658L39.0674 39.738Z" fill="black"/>
<path fill-rule="evenodd" clip-rule="evenodd" d="M43.0236 45.6665C42.7614 45.5658 42.4461 45.4606 42.11 45.3656C41.5799 45.4934 41.1964 45.8859 41.1964 46.3292C41.1964 46.7408 41.5591 47.0134 42.1181 47.0134C42.7995 47.0134 43.4209 46.5701 43.4209 46.0725C43.422 45.8915 43.3042 45.7762 43.0236 45.6665ZM42.9058 42.5791C42.4865 42.5791 42.14 43.0122 42.14 43.5358C42.14 43.8841 42.3525 44.1228 42.6632 44.1228C43.0663 44.1228 43.4059 43.7122 43.4059 43.1977C43.4082 42.8109 43.2142 42.5791 42.9058 42.5791ZM44.3957 42.7385L43.8679 42.7329C43.9603 42.8912 43.9915 43.0179 43.9915 43.1954C43.9915 43.9011 43.3874 44.4315 42.6147 44.4315C42.4599 44.4315 42.3525 44.4191 42.1908 44.3716C41.9991 44.4881 41.9333 44.5356 41.9333 44.6079C41.9333 44.6905 42.0187 44.7369 42.3618 44.842L42.9774 45.0241C43.6057 45.2186 43.9175 45.395 43.9175 45.8406C43.9175 46.656 43.0906 47.2882 42.0534 47.2882C41.1952 47.2882 40.6663 46.8901 40.6663 46.2444C40.6663 45.6427 41.0659 45.3622 41.7023 45.2051C41.3073 45.0659 41.2241 45.006 41.2241 44.876C41.2241 44.7165 41.4516 44.5039 41.9194 44.2472C41.6769 44.0741 41.5614 43.8581 41.5614 43.5596C41.5614 42.8335 42.155 42.2828 42.9335 42.2828C43.1379 42.2828 43.2823 42.3088 43.4567 42.3687H44.4846L44.3957 42.7385Z" fill="black"/>
<path fill-rule="evenodd" clip-rule="evenodd" d="M46.9612 42.609C46.6575 42.609 46.3445 42.8363 46.0812 43.2671C45.7797 43.7263 45.5706 44.3483 45.5706 44.7543C45.5706 44.9861 45.6792 45.1117 45.8871 45.1117C46.1724 45.1117 46.6783 44.8708 46.8769 44.6774C46.9843 44.5677 47.0329 44.4162 47.1241 44.1187C47.2408 43.6641 47.3609 43.2253 47.4359 42.7164C47.2535 42.6463 47.0906 42.609 46.9612 42.609ZM47.3239 45.4351C47.1899 45.4351 47.1345 45.3424 47.0652 44.9646C46.49 45.2904 46.0661 45.4419 45.6561 45.4419C45.1918 45.4419 44.9158 45.1987 44.9158 44.7826C44.9158 44.3743 45.119 43.8055 45.432 43.3429C45.8525 42.6972 46.3664 42.2878 47.1715 42.2878C47.5156 42.2878 47.8344 42.3488 48.1774 42.4325L48.1359 42.5592C47.8552 43.4402 47.6577 44.3992 47.6577 44.7249C47.6577 44.9364 47.7027 45.0415 47.794 45.0415C47.8552 45.0415 48.0215 45.0031 48.2144 44.9352L48.2375 45.166C47.8333 45.3118 47.4556 45.4351 47.3239 45.4351Z" fill="black"/>
<path fill-rule="evenodd" clip-rule="evenodd" d="M50.7742 40.9412C50.519 41.9556 50.2626 43.0831 50.0085 44.1643C49.9334 44.5137 49.8895 44.7377 49.8895 44.8666C49.8895 44.9639 49.9542 45.0193 50.0616 45.0193C50.1424 45.0193 50.2799 44.9944 50.4947 44.9344L50.5132 45.1425C50.1124 45.3009 49.6308 45.4354 49.4206 45.4354C49.2716 45.4354 49.1873 45.3427 49.1873 45.1991C49.1873 45.0916 49.2115 44.9559 49.3235 44.473C49.5719 43.4643 49.8329 42.3933 50.0408 41.4411C50.1332 40.9842 50.1829 40.7716 50.1829 40.6969C50.1829 40.611 50.1332 40.5624 50.0523 40.5624C49.9761 40.5624 49.8329 40.5985 49.7082 40.6404L49.692 40.4108C50.0893 40.2694 50.527 40.1677 50.75 40.1677C50.8574 40.1677 50.9117 40.2118 50.9117 40.2898C50.9105 40.3712 50.8759 40.5533 50.7742 40.9412Z" fill="black"/>
<path fill-rule="evenodd" clip-rule="evenodd" d="M51.8619 45.4186C51.7002 45.4186 51.6021 45.3372 51.6021 45.1992C51.6021 45.1336 51.6251 45.0092 51.6679 44.8441C51.7707 44.4324 51.9012 43.8851 51.9843 43.6001C52.0895 43.2099 52.1357 42.9227 52.1357 42.8107C52.1357 42.7157 52.0895 42.6784 52.0063 42.6784C51.9335 42.6784 51.8677 42.6976 51.7014 42.7462L51.6459 42.7587L51.6251 42.5472C52.0502 42.3889 52.4717 42.286 52.6831 42.286C52.8009 42.286 52.846 42.3289 52.846 42.4194C52.846 42.5065 52.8136 42.7496 52.6669 43.2993L52.5572 43.7335C52.3551 44.4731 52.3147 44.7389 52.3147 44.8678C52.3147 44.9651 52.3724 45.0329 52.4902 45.0329C52.563 45.0329 52.6947 45.0092 52.9187 44.9357L52.9303 45.1438C52.511 45.3044 52.0664 45.4186 51.8619 45.4186ZM52.7039 41.5192C52.466 41.5192 52.3135 41.371 52.3135 41.1573C52.3135 40.887 52.511 40.6948 52.7928 40.6948C53.0296 40.6948 53.1763 40.8305 53.1763 41.0578C53.1763 41.3247 52.973 41.5192 52.7039 41.5192Z" fill="black"/>
<path fill-rule="evenodd" clip-rule="evenodd" d="M55.7776 42.7497L55.132 42.7327L54.8005 44.3013C54.7104 44.7084 54.7104 44.8193 54.7104 44.8781C54.7104 44.9878 54.7566 45.042 54.8594 45.042C54.9195 45.042 55.035 45.0172 55.2256 44.9651L55.296 44.9357L55.3203 45.1551C54.9195 45.3327 54.5014 45.4277 54.2669 45.4277C54.1133 45.4277 54.0105 45.3564 54.0105 45.2094C54.0105 45.0737 54.0324 44.8962 54.1029 44.6553C54.1664 44.3771 54.2172 44.1588 54.2796 43.8614L54.5245 42.7316L54.1168 42.744L54.1653 42.5009C54.6954 42.4025 54.8744 42.0067 55.0327 41.5554L55.3965 41.4774L55.2036 42.3731H55.8527L55.7776 42.7497Z" fill="black"/>
<path fill-rule="evenodd" clip-rule="evenodd" d="M58.109 42.5923C57.7221 42.5923 57.3317 43.091 57.14 43.8374H57.222C57.9358 43.8374 58.4844 43.4586 58.4844 42.9757C58.4844 42.7574 58.3146 42.5923 58.109 42.5923ZM57.3017 44.1089C57.2428 44.1089 57.1735 44.1089 57.0673 44.1032C57.043 44.2446 57.043 44.3656 57.043 44.4719C57.043 44.8711 57.177 45.0679 57.4576 45.0679C57.7094 45.0679 58.019 44.9344 58.4717 44.6562L58.563 44.9141C57.9832 45.2703 57.5454 45.4354 57.1562 45.4354C56.6665 45.4354 56.4043 45.1425 56.4043 44.6415C56.4043 43.3885 57.2705 42.2858 58.2765 42.2858C58.7674 42.2858 59.0677 42.5086 59.0677 42.8807C59.0688 43.5898 58.2938 44.1089 57.3017 44.1089ZM58.1691 41.8176L57.9173 41.6107L58.869 40.5612L59.5701 40.7286L58.1691 41.8176Z" fill="black"/>
<path fill-rule="evenodd" clip-rule="evenodd" d="M72.9274 41.3548H72.6941C72.7033 41.2835 72.7149 41.2157 72.7149 41.1784C72.7149 41.0257 72.6595 40.9081 72.5728 40.8131C72.4215 40.6763 72.1443 40.6242 71.5495 40.6242C71.3936 40.6242 71.1695 40.631 70.979 40.6423C70.8404 41.2632 70.7225 41.8694 70.5759 42.5162C70.7225 42.5162 70.8681 42.5219 71.0171 42.5219C71.8868 42.5219 72.0531 42.4484 72.2136 41.9542H72.425C72.3014 42.4484 72.2021 42.9358 72.1351 43.4402H71.9087C71.9203 43.3893 71.9307 43.3475 71.9307 43.3169C71.9307 43.1812 71.8821 43.0523 71.7817 42.989C71.6477 42.8827 71.4941 42.8725 71.0263 42.8725C70.7768 42.8725 70.711 42.8747 70.4973 42.8747L70.3992 43.4097C70.2594 44.1199 70.2016 44.4716 70.2016 44.6831C70.2016 44.9963 70.3414 45.1388 70.659 45.1773L70.6348 45.339L70.4973 45.3277H69.8043H68.8122L68.6782 45.339L68.7094 45.1773C68.9496 45.1513 69.0894 45.0823 69.1933 44.9364C69.325 44.7905 69.4024 44.5711 69.504 44.1481C69.6184 43.715 69.66 43.4854 69.8205 42.6983L69.9452 42.0842C70.0642 41.4792 70.1173 41.1252 70.1173 40.9352C70.1173 40.6016 69.9926 40.4535 69.66 40.4173L69.6807 40.2556H73.1469C73.066 40.5994 72.9886 40.9839 72.9274 41.3548Z" fill="black"/>
<path fill-rule="evenodd" clip-rule="evenodd" d="M75.5803 43.2716L75.3169 43.2523C75.3366 43.1573 75.3446 43.0409 75.3446 42.9459C75.3446 42.8102 75.2211 42.7061 75.0236 42.7061C74.9115 42.7061 74.7983 42.7751 74.6909 42.8904C74.3976 43.2241 74.2809 43.7431 74.11 44.5845L73.954 45.3309C73.6618 45.3423 73.5844 45.3536 73.2842 45.3796C73.3627 45.1048 73.4181 44.8695 73.477 44.6094L73.648 43.9105C73.7635 43.431 73.8166 43.1189 73.8166 42.9583C73.8166 42.7751 73.775 42.6948 73.6861 42.6948C73.6376 42.6948 73.5706 42.7061 73.4851 42.7231L73.2899 42.7785L73.2622 42.5602C73.6503 42.4019 74.0857 42.2843 74.2832 42.2843C74.3583 42.2843 74.401 42.3148 74.4172 42.3917C74.4449 42.4754 74.4657 42.5908 74.4726 42.7129C74.8237 42.4381 75.124 42.2798 75.3469 42.2798C75.4982 42.2798 75.6784 42.3453 75.8655 42.4754C75.7443 42.757 75.6426 43.0081 75.5803 43.2716Z" fill="black"/>
<path fill-rule="evenodd" clip-rule="evenodd" d="M78.2941 42.609C77.9788 42.609 77.6727 42.8363 77.399 43.2671C77.1091 43.7263 76.8977 44.3483 76.8977 44.7543C76.8977 44.9861 77.0166 45.1117 77.2118 45.1117C77.4937 45.1117 78.0122 44.8708 78.204 44.6774C78.3114 44.5677 78.3657 44.4162 78.4546 44.1187C78.5817 43.6641 78.6937 43.2253 78.7607 42.7164C78.5863 42.6463 78.4304 42.609 78.2941 42.609ZM78.6533 45.4351C78.5135 45.4351 78.4673 45.3424 78.3957 44.9646C77.8228 45.2904 77.3909 45.4419 76.9889 45.4419C76.5165 45.4419 76.2451 45.1987 76.2451 44.7826C76.2451 44.3743 76.4461 43.8055 76.7602 43.3429C77.1772 42.6972 77.6992 42.2878 78.495 42.2878C78.8438 42.2878 79.1626 42.3488 79.4976 42.4325L79.4652 42.5592C79.1834 43.4402 78.9836 44.3992 78.9836 44.7249C78.9836 44.9364 79.0275 45.0415 79.1268 45.0415C79.1834 45.0415 79.3405 45.0031 79.5426 44.9352L79.5646 45.166C79.1638 45.3118 78.7884 45.4351 78.6533 45.4351Z" fill="black"/>
<path fill-rule="evenodd" clip-rule="evenodd" d="M82.3646 42.7497L81.727 42.7327L81.4002 44.3013C81.3078 44.7084 81.3032 44.8193 81.3032 44.8781C81.3032 44.9878 81.3609 45.042 81.4556 45.042C81.5122 45.042 81.6254 45.0172 81.8125 44.9651L81.8945 44.9357L81.9188 45.1551C81.5111 45.3327 81.093 45.4277 80.8677 45.4277C80.6991 45.4277 80.5986 45.3564 80.5986 45.2094C80.5986 45.0737 80.631 44.8962 80.6933 44.6553C80.758 44.3771 80.8181 44.1588 80.8735 43.8614L81.1172 42.7316L80.706 42.744L80.7569 42.5009C81.2951 42.4025 81.4776 42.0067 81.6173 41.5554L81.9973 41.4774L81.7998 42.3731H82.4466L82.3646 42.7497Z" fill="black"/>
<path fill-rule="evenodd" clip-rule="evenodd" d="M84.6984 42.5923C84.3288 42.5923 83.9349 43.091 83.7316 43.8374H83.8102C84.5309 43.8374 85.0818 43.4586 85.0818 42.9757C85.083 42.7574 84.9132 42.5923 84.6984 42.5923ZM83.8922 44.1088C83.8367 44.1088 83.7732 44.1088 83.6739 44.1032C83.6462 44.2445 83.6392 44.3655 83.6392 44.4719C83.6392 44.8711 83.7859 45.0678 84.0596 45.0678C84.3057 45.0678 84.6198 44.9344 85.083 44.6562L85.1557 44.914C84.5805 45.2703 84.1486 45.4354 83.7501 45.4354C83.2627 45.4354 82.9971 45.1425 82.9971 44.6415C82.9971 43.3884 83.8645 42.2858 84.8762 42.2858C85.374 42.2858 85.6512 42.5086 85.6512 42.8807C85.6524 43.5897 84.8912 44.1088 83.8922 44.1088Z" fill="black"/>
<path fill-rule="evenodd" clip-rule="evenodd" d="M88.7803 43.2716L88.5216 43.2523C88.5343 43.1573 88.5435 43.0409 88.5435 42.9459C88.5435 42.8102 88.4245 42.7061 88.2294 42.7061C88.1092 42.7061 87.996 42.7751 87.8933 42.8904C87.593 43.2241 87.4728 43.7431 87.3135 44.5845L87.1587 45.3309C86.8642 45.3423 86.7879 45.3536 86.4819 45.3796C86.5604 45.1048 86.6135 44.8695 86.6747 44.6094L86.8595 43.9105C86.9669 43.431 87.0224 43.1189 87.0224 42.9583C87.0224 42.7751 86.9716 42.6948 86.8803 42.6948C86.8411 42.6948 86.7718 42.7061 86.6863 42.7231L86.4922 42.7785L86.4634 42.5602C86.8607 42.4019 87.2823 42.2843 87.4763 42.2843C87.5629 42.2843 87.601 42.3148 87.6218 42.3917C87.6495 42.4754 87.6657 42.5908 87.6726 42.7129C88.0261 42.4381 88.3298 42.2798 88.5447 42.2798C88.7029 42.2798 88.8808 42.3453 89.0621 42.4754C88.9466 42.757 88.8461 43.0081 88.7803 43.2716Z" fill="black"/>
<path fill-rule="evenodd" clip-rule="evenodd" d="M91.8864 45.428C91.7282 45.428 91.6381 45.3375 91.6381 45.1984C91.6381 45.1057 91.6739 44.9349 91.7652 44.5572L91.8414 44.2304C92.0655 43.2996 92.1382 42.9592 92.1382 42.8371C92.1382 42.7161 92.0655 42.6675 91.9673 42.6675C91.8333 42.6675 91.6127 42.7342 91.3794 42.8744C91.1334 43.0124 90.944 43.1775 90.8516 43.32C90.7788 43.4297 90.7291 43.6186 90.6321 44.02C90.5051 44.59 90.4323 44.9655 90.3699 45.3274C90.0627 45.3443 89.9865 45.3556 89.6804 45.3816C89.8421 44.8207 89.9495 44.3491 90.0673 43.8187C90.1909 43.311 90.2325 43.0508 90.2325 42.9276C90.2325 42.7455 90.1805 42.6675 90.0627 42.6675C89.9923 42.6675 89.8629 42.6957 89.6804 42.75L89.6631 42.5419C90.0385 42.3927 90.4473 42.2852 90.631 42.2852C90.8007 42.2852 90.855 42.3881 90.855 42.7444V42.8009C91.451 42.4729 92.0551 42.2863 92.4813 42.2863C92.7388 42.2863 92.8335 42.3474 92.8335 42.5035C92.8335 42.6686 92.7919 42.9072 92.6233 43.5371C92.5367 43.8809 92.4443 44.2507 92.4131 44.4238C92.3773 44.6432 92.3496 44.7902 92.3496 44.8739C92.3496 44.9892 92.4062 45.0333 92.5205 45.0333C92.5933 45.0333 92.7388 45.0096 92.9236 44.9372L92.9479 45.1577C92.5402 45.3047 92.0666 45.428 91.8864 45.428Z" fill="black"/>
<path fill-rule="evenodd" clip-rule="evenodd" d="M94.3195 45.4186C94.1716 45.4186 94.0642 45.3372 94.0642 45.1992C94.0642 45.1336 94.0862 45.0092 94.1254 44.8441C94.2248 44.4324 94.3634 43.8851 94.4465 43.6001C94.547 43.2099 94.6001 42.9227 94.6001 42.8107C94.6001 42.7157 94.547 42.6784 94.4754 42.6784C94.4038 42.6784 94.3195 42.6976 94.1716 42.7462L94.1035 42.7587L94.085 42.5472C94.5089 42.3889 94.9409 42.286 95.1476 42.286C95.2666 42.286 95.3104 42.3289 95.3104 42.4194C95.3104 42.5065 95.2712 42.7496 95.128 43.2993L95.0136 43.7335C94.8219 44.4731 94.7676 44.7389 94.7676 44.8678C94.7676 44.9651 94.8323 45.0329 94.9559 45.0329C95.0252 45.0329 95.1718 45.0092 95.3844 44.9357L95.4052 45.1438C94.9813 45.3044 94.5354 45.4186 94.3195 45.4186ZM95.1719 41.5192C94.9258 41.5192 94.7676 41.371 94.7676 41.1573C94.7676 40.887 94.9743 40.6948 95.2504 40.6948C95.4872 40.6948 95.6327 40.8305 95.6327 41.0578C95.6327 41.3247 95.4433 41.5192 95.1719 41.5192Z" fill="black"/>
<path fill-rule="evenodd" clip-rule="evenodd" d="M98.2435 42.7497L97.5921 42.7327L97.2722 44.3013C97.1798 44.7084 97.1752 44.8193 97.1752 44.8781C97.1752 44.9878 97.226 45.042 97.3311 45.042C97.39 45.042 97.5009 45.0172 97.6926 44.9651L97.7631 44.9357L97.7931 45.1551C97.39 45.3327 96.9661 45.4277 96.7363 45.4277C96.5792 45.4277 96.4648 45.3564 96.4648 45.2094C96.4648 45.0737 96.4995 44.8962 96.5746 44.6553C96.6369 44.3771 96.6878 44.1588 96.7524 43.8614L96.9892 42.7316L96.578 42.744L96.6358 42.5009C97.1648 42.4025 97.3473 42.0067 97.4951 41.5554L97.8658 41.4774L97.673 42.3731H98.3278L98.2435 42.7497Z" fill="black"/>
<path fill-rule="evenodd" clip-rule="evenodd" d="M100.564 42.5923C100.199 42.5923 99.7991 43.091 99.6051 43.8374H99.6825C100.4 43.8374 100.954 43.4586 100.954 42.9757C100.955 42.7574 100.782 42.5923 100.564 42.5923ZM99.761 44.1089C99.7113 44.1089 99.6513 44.1089 99.5416 44.1032C99.5254 44.2446 99.5173 44.3656 99.5173 44.4719C99.5173 44.8711 99.6513 45.0679 99.925 45.0679C100.176 45.0679 100.487 44.9344 100.951 44.6562L101.028 44.9141C100.454 45.2703 100.019 45.4354 99.6316 45.4354C99.1385 45.4354 98.8774 45.1425 98.8774 44.6415C98.8774 43.3885 99.7414 42.2858 100.75 42.2858C101.237 42.2858 101.529 42.5086 101.529 42.8807C101.53 43.5898 100.758 44.1089 99.761 44.1089ZM100.635 41.8176L100.389 41.6107L101.344 40.5612L102.032 40.7286L100.635 41.8176Z" fill="black"/>
<path fill-rule="evenodd" clip-rule="evenodd" d="M64.097 43.9977C64.6225 43.9977 65.0452 43.5895 65.0452 43.0794C65.0452 42.5773 64.6237 42.1589 64.097 42.1589C63.5842 42.1589 63.1453 42.5773 63.1453 43.0794C63.1453 43.5906 63.5842 43.9977 64.097 43.9977Z" fill="black"/>
<path fill-rule="evenodd" clip-rule="evenodd" d="M31.6361 43.9977C32.1512 43.9977 32.5809 43.5895 32.5809 43.0794C32.5809 42.5773 32.1512 42.1589 31.6361 42.1589C31.1083 42.1589 30.6902 42.5773 30.6902 43.0794C30.6913 43.5906 31.1083 43.9977 31.6361 43.9977Z" fill="black"/>
<path fill-rule="evenodd" clip-rule="evenodd" d="M4.08032 49.4287H101.676V48.6223H4.08032V49.4287Z" fill="black"/>
</svg>
