<svg width="78" height="89" viewBox="0 0 100 100" fill="none" xmlns="http://www.w3.org/2000/svg">
<path d="M10.9283 78.0224V49.4458C10.9283 47.2366 12.7192 45.4458 14.9283 45.4458H64.3045C66.5137 45.4458 68.3045 43.6549 68.3045 41.4458V10.0769" stroke="#6E84FE" stroke-width="4" stroke-linejoin="round"/>
<path d="M18.4778 79.5321H64.3045C66.5136 79.5321 68.3045 77.7412 68.3045 75.5321V45.5593" stroke="#6E84FE" stroke-width="4" stroke-miterlimit="16" stroke-linecap="round" stroke-linejoin="round" stroke-dasharray="6 14"/>
<path d="M17.9877 78.7772C17.9877 83.093 14.4891 86.5916 10.1734 86.5916C5.85761 86.5916 2.35901 83.093 2.35901 78.7772C2.35901 74.4615 5.85761 70.9629 10.1734 70.9629C14.4891 70.9629 17.9877 74.4615 17.9877 78.7772Z" fill="white" stroke="#6E84FE" stroke-width="4"/>
<path d="M45.9208 45.5593C45.9208 48.9583 43.014 51.8638 39.2389 51.8638C35.4639 51.8638 32.557 48.9583 32.557 45.5593C32.557 42.1603 35.4639 39.2549 39.2389 39.2549C43.014 39.2549 45.9208 42.1603 45.9208 45.5593Z" fill="white" stroke="#6E84FE" stroke-width="4"/>
<path d="M76.1188 10.0768C76.1188 14.3925 72.6202 17.8911 68.3045 17.8911C63.9887 17.8911 60.4901 14.3925 60.4901 10.0768C60.4901 5.76105 63.9887 2.26245 68.3045 2.26245C72.6202 2.26245 76.1188 5.76105 76.1188 10.0768Z" fill="white" stroke="#6E84FE" stroke-width="4"/>
</svg>
