<svg width="74" height="80" viewBox="0 0 74 80" fill="none" xmlns="http://www.w3.org/2000/svg">
<path fill-rule="evenodd" clip-rule="evenodd" d="M36.7556 0.0195312C37.2956 0.0195312 37.7333 0.458468 37.7333 0.999923V15.7602C39.1213 15.9673 40.4332 16.7662 41.2339 18.1568L72.5648 72.5686C74.4465 75.8365 72.0944 79.9215 68.3309 79.9215H5.66912C1.90565 79.9215 -0.446501 75.8365 1.43523 72.5686L32.7661 18.1568C33.4721 16.9307 34.5753 16.1647 35.7778 15.8586V0.999923C35.7778 0.458468 36.2155 0.0195312 36.7556 0.0195312ZM35.7778 17.93C35.2517 18.1693 34.7853 18.5717 34.4597 19.1372L3.12879 73.5489C1.99975 75.5097 3.41105 77.9607 5.66912 77.9607H68.3309C70.589 77.9607 72.0003 75.5097 70.8712 73.549L39.5403 19.1372C39.1168 18.4016 38.4548 17.9419 37.7333 17.7582V66.035L42.2867 61.4695C42.6686 61.0866 43.2876 61.0866 43.6695 61.4695C44.0513 61.8523 44.0513 62.4731 43.6695 62.8559L37.447 69.0951C37.0651 69.478 36.446 69.478 36.0642 69.0951L29.8416 62.8559C29.4598 62.4731 29.4598 61.8523 29.8416 61.4695C30.2235 61.0866 30.8426 61.0866 31.2244 61.4695L35.7778 66.035V17.93Z" fill="white"/>
</svg>
