<svg width="70" height="70" viewBox="0 0 70 70" fill="none" xmlns="http://www.w3.org/2000/svg">
<path fill-rule="evenodd" clip-rule="evenodd" d="M35.0002 1.97142C16.7591 1.97142 1.97167 16.7588 1.97167 35C1.97167 53.2412 16.7591 68.0286 35.0002 68.0286C53.2414 68.0286 68.0288 53.2412 68.0288 35C68.0288 26.2288 64.6098 18.2562 59.0318 12.3422L53.1898 18.1842C57.2751 22.6011 59.7717 28.509 59.7717 35C59.7717 48.6809 48.6811 59.7714 35.0002 59.7714C21.3194 59.7714 10.2288 48.6809 10.2288 35C10.2288 21.3191 21.3194 10.2286 35.0002 10.2286C41.4912 10.2286 47.3991 12.7251 51.816 16.8104L57.658 10.9684C51.744 5.39042 43.7714 1.97142 35.0002 1.97142ZM59.0324 9.59404C52.7663 3.66473 44.3079 0.0285645 35.0002 0.0285645C15.686 0.0285645 0.0288086 15.6858 0.0288086 35C0.0288086 54.3142 15.686 69.9714 35.0002 69.9714C54.3144 69.9714 69.9717 54.3142 69.9717 35C69.9717 25.6923 66.3355 17.2339 60.4062 10.9678L68.23 3.14404L66.8562 1.77023L59.0324 9.59404ZM50.441 18.1854C46.3767 14.4511 40.9547 12.1714 35.0002 12.1714C22.3924 12.1714 12.1717 22.3921 12.1717 35C12.1717 47.6079 22.3924 57.8286 35.0002 57.8286C47.6081 57.8286 57.8288 47.6079 57.8288 35C57.8288 29.0455 55.5491 23.6235 51.8148 19.5592L44.5906 26.7834C46.4846 28.992 47.6288 31.8624 47.6288 35C47.6288 41.9746 41.9748 47.6286 35.0002 47.6286C28.0257 47.6286 22.3717 41.9746 22.3717 35C22.3717 28.0254 28.0257 22.3714 35.0002 22.3714C38.1379 22.3714 41.0082 23.5157 43.2168 25.4096L50.441 18.1854ZM41.8382 26.7882C39.9852 25.2436 37.6012 24.3143 35.0002 24.3143C29.0987 24.3143 24.3145 29.0984 24.3145 35C24.3145 40.9016 29.0987 45.6857 35.0002 45.6857C40.9018 45.6857 45.686 40.9016 45.686 35C45.686 32.399 44.7567 30.015 43.212 28.1621L35.8883 35.4857H42.2859C42.8225 35.4857 43.2574 35.9206 43.2574 36.4571C43.2574 36.9936 42.8225 37.4286 42.2859 37.4286H33.5431C33.0066 37.4286 32.5717 36.9936 32.5717 36.4571V27.7143C32.5717 27.1778 33.0066 26.7428 33.5431 26.7428C34.0796 26.7428 34.5145 27.1778 34.5145 27.7143V34.1119L41.8382 26.7882Z" fill="white"/>
</svg>
