<svg width="69" height="69" viewBox="0 0 69 69" fill="none" xmlns="http://www.w3.org/2000/svg">
<path fill-rule="evenodd" clip-rule="evenodd" d="M34.5001 1.97805C16.5387 1.97805 1.97818 16.5386 1.97818 34.5C1.97818 52.4613 16.5387 67.0219 34.5001 67.0219C52.4614 67.0219 67.022 52.4613 67.022 34.5C67.022 16.5386 52.4614 1.97805 34.5001 1.97805ZM0.0219727 34.5C0.0219727 15.4582 15.4583 0.0218506 34.5001 0.0218506C53.5418 0.0218506 68.9782 15.4582 68.9782 34.5C68.9782 53.5417 53.5418 68.9781 34.5001 68.9781C15.4583 68.9781 0.0219727 53.5417 0.0219727 34.5ZM34.2555 13.2262C34.7957 13.2262 35.2337 13.6641 35.2337 14.2043V33.2773H54.7957C55.3359 33.2773 55.7738 33.7152 55.7738 34.2554C55.7738 34.7956 55.3359 35.2335 54.7957 35.2335H34.2555C33.7154 35.2335 33.2774 34.7956 33.2774 34.2554V14.2043C33.2774 13.6641 33.7154 13.2262 34.2555 13.2262Z" fill="white"/>
</svg>
