<svg width="61" height="69" viewBox="0 0 61 69" fill="none" xmlns="http://www.w3.org/2000/svg">
<path fill-rule="evenodd" clip-rule="evenodd" d="M0.0141602 4.91248C0.0141602 2.21153 2.22099 0.0219727 4.94325 0.0219727H49.798C52.5203 0.0219727 54.7271 2.21153 54.7271 4.91248V37.2738L59.7963 42.3033C60.1813 42.6853 60.1813 43.3046 59.7963 43.6865C59.4113 44.0685 58.7872 44.0685 58.4022 43.6865L54.7271 40.0403V64.0877C54.7271 66.7886 52.5203 68.9782 49.798 68.9782H4.94325C2.22099 68.9782 0.0141602 66.7886 0.0141602 64.0877V4.91248ZM52.7555 35.3176V4.91248C52.7555 3.29191 51.4314 1.97818 49.798 1.97818H4.94325C3.3099 1.97818 1.9858 3.29191 1.9858 4.91248V64.0877C1.9858 65.7082 3.3099 67.022 4.94325 67.022H49.798C51.4314 67.022 52.7555 65.7082 52.7555 64.0877V38.084L46.1137 31.4942C43.8626 33.2252 41.0367 34.2555 37.9682 34.2555C30.6181 34.2555 24.6596 28.3437 24.6596 21.0512C24.6596 13.7586 30.6181 7.84679 37.9682 7.84679C45.3183 7.84679 51.2767 13.7586 51.2767 21.0512C51.2767 24.5944 49.8701 27.8117 47.5807 30.1833L52.7555 35.3176ZM46.0858 28.9031C48.0778 26.8761 49.3051 24.1058 49.3051 21.0512C49.3051 14.839 44.2294 9.80299 37.9682 9.80299C31.707 9.80299 26.6313 14.839 26.6313 21.0512C26.6313 27.2634 31.707 32.2993 37.9682 32.2993C40.568 32.2993 42.9634 31.4311 44.8759 29.9709C44.8413 29.6832 44.9352 29.3832 45.1577 29.1625C45.4094 28.9127 45.7633 28.8263 46.0858 28.9031Z" fill="white"/>
</svg>
